<svg xmlns="http://www.w3.org/2000/svg" xmlns:xlink="http://www.w3.org/1999/xlink" width="239.5" height="111.5" viewBox="4033.5 3033 239.5 111.5"><title></title><style type="text/css">
*[layerid="0"] {stroke:#000000; fill:#000000;}
*[layerid="1"] {stroke:#000000; fill:#000000;}
*[layerid="2"] {stroke:#000000; fill:#000000;}
*[layerid="3"] {stroke:#000000; fill:#000000;}
*[layerid="4"] {stroke:#000000; fill:#000000;}
*[layerid="5"] {stroke:#000000; fill:#000000;}
*[layerid="6"] {stroke:#000000; fill:#000000;}
*[layerid="7"] {stroke:#000000; fill:#000000;}
*[layerid="8"] {stroke:#000000; fill:#000000;}
*[layerid="9"] {stroke:#000000; fill:#000000;}
*[layerid="10"] {stroke:#000000; fill:#000000;}
*[layerid="11"] {stroke:#000000; fill:#000000;}
*[layerid="12"] {stroke:#000000; fill:#000000;}
*[layerid="13"] {stroke:#000000; fill:#000000;}
*[layerid="14"] {stroke:#000000; fill:#000000;}
*[layerid="15"] {stroke:#000000; fill:#000000;}
*[layerid="16"] {stroke:#000000; fill:#000000;}
*[layerid="17"] {stroke:#000000; fill:#000000;}
*[layerid="18"] {stroke:#000000; fill:#000000;}
*[layerid="19"] {stroke:#000000; fill:#000000;}
*[layerid="20"] {stroke:#000000; fill:#000000;}
*[layerid="21"] {stroke:#000000; fill:#000000;}
*[layerid="22"] {stroke:#000000; fill:#000000;}
*[layerid="23"] {stroke:#000000; fill:#000000;}
*[layerid="24"] {stroke:#000000; fill:#000000;}
*[fill="none"] {fill: none;}
*[stroke="none"] {stroke: none;}
path, polyline, polygon, line {stroke-linecap:round;}
g[c_partid="part_pad"][layerid="1"] ellipse {fill:#000000;}
g[c_partid="part_pad"][layerid="1"]  polygon {fill:#000000;}
g[c_partid="part_pad"][layerid="1"]  polyline {stroke:#000000;}
g[c_partid="part_pad"][layerid="1"]  circle {fill:#000000;}
g[c_partid="part_pad"][layerid="2"]  ellipse {fill:#000000;}
g[c_partid="part_pad"][layerid="2"]  polygon {fill:#000000;}
g[c_partid="part_pad"][layerid="2"]  polyline {stroke:#000000;}
g[c_partid="part_pad"][layerid="2"]  circle {fill:#000000;}
g[c_partid="part_pad"][layerid="11"]  ellipse {fill:#000000;}
g[c_partid="part_pad"][layerid="11"]  polygon {fill:#000000;}
g[c_partid="part_pad"][layerid="11"]  polyline {stroke:#000000;}
g[c_partid="part_pad"][layerid="11"]  circle {fill:#000000;}
g[c_partid="part_pad"][layerid] > * + circle {fill: #FFFFFF;}
g[c_partid="part_pad"][layerid] > * + polyline {stroke:#FFFFFF;}
g[c_partid="part_via"][layerid] > * + circle {fill: #FFFFFF;}path, polyline, polygon {stroke-linejoin:round;}
rect, circle, ellipse, polyline, line, polygon, path {shape-rendering:crispEdges;}
</style>
<rect x="4033.5" y="3033" width="239.5" height="111.5" fill="#FFFFFF" stroke="none"/><g id="g1" cpara="" c_transformList="" importFlag="0" xmlns="http://www.w3.org/2000/svg"><g xmlns="http://www.w3.org/2000/svg" c_origin="4092,3089" c_para="package`SIM800C`value`SIM800C32" c_partid="part_import_gge1" id="gge1" c_shapetype="group" c_etype="pinpart" layerid="1" c_rotation="270"><g c_partid="part_pcbtext" c_origin="4092.45,3091.24" c_rotation="90" c_mirror="" id="gge3" layerid="3" c_shapetype="group" ><path c_fontSize="4.5" c_fontFamily="" c_text="U1" d="M 4090.0002 3091.24 L 4093.0602 3091.24 L 4093.6802 3091.04 L 4094.0902 3090.63 L 4094.2902 3090.01 L 4094.2902 3089.6 L 4094.0902 3088.99 L 4093.6802 3088.58 L 4093.0602 3088.38 L 4090.0002 3088.38 M 4090.8102 3087.03 L 4090.6102 3086.62 L 4090.0002 3086 L 4094.2902 3086" fill="none"  stroke-width="0.7" c_note="note_pre" /></g><polyline points="4126.57 3058.15 4126.57 3119.961" stroke-width="1" c_shapetype="line" stroke-linecap="round" fill="none" layerid="3" net="" id="gge5" /><polyline points="4126.57 3058.05 4057.279 3058.05" stroke-width="1" c_shapetype="line" stroke-linecap="round" fill="none" layerid="3" net="" id="gge6" /><polyline points="4057.27 3058.05 4057.27 3119.861" stroke-width="1" c_shapetype="line" stroke-linecap="round" fill="none" layerid="3" net="" id="gge7" /><polyline points="4126.591 3120.2 4057.3 3120.2" stroke-width="1" c_shapetype="line" stroke-linecap="round" fill="none" layerid="3" net="" id="gge8" /><circle cx="4122.1" cy="3062.7" r="1.9" stroke-width="1" fill="none" layerid="3" id="gge9" c_shapetype="line" /><g c_partid="part_pcbtext" c_origin="4100.45,3091.24" c_rotation="90" c_mirror="" id="rep14" layerid="3" c_shapetype="group" display="none"><path c_fontSize="4.5" c_fontFamily="" c_text="SIM800C32" d="M 4098.61 3088.38L4098.2 3088.79 L4098 3089.4 L4098 3090.22 L4098.2 3090.83 L4098.61 3091.24 L4099.02 3091.24 L4099.43 3091.04 L4099.63 3090.83 L4099.84 3090.42 L4100.25 3089.19 L4100.45 3088.79 L4100.65 3088.58 L4101.06 3088.38 L4101.68 3088.38 L4102.09 3088.79 L4102.29 3089.4 L4102.29 3090.22 L4102.09 3090.83 L4101.68 3091.24 M 4098 3087.03L4102.29 3087.03 M 4098 3085.68L4102.29 3085.68 M 4098 3085.68L4102.29 3084.04 M 4098 3082.4L4102.29 3084.04 M 4098 3082.4L4102.29 3082.4 M 4098 3080.03L4098.2 3080.64 L4098.61 3080.85 L4099.02 3080.85 L4099.43 3080.64 L4099.63 3080.24 L4099.84 3079.42 L4100.04 3078.8 L4100.45 3078.39 L4100.86 3078.19 L4101.47 3078.19 L4101.88 3078.39 L4102.09 3078.6 L4102.29 3079.21 L4102.29 3080.03 L4102.09 3080.64 L4101.88 3080.85 L4101.47 3081.05 L4100.86 3081.05 L4100.45 3080.85 L4100.04 3080.44 L4099.84 3079.83 L4099.63 3079.01 L4099.43 3078.6 L4099.02 3078.39 L4098.61 3078.39 L4098.2 3078.6 L4098 3079.21 L4098 3080.03 M 4098 3075.61L4098.2 3076.23 L4098.81 3076.64 L4099.84 3076.84 L4100.45 3076.84 L4101.47 3076.64 L4102.09 3076.23 L4102.29 3075.61 L4102.29 3075.2 L4102.09 3074.59 L4101.47 3074.18 L4100.45 3073.98 L4099.84 3073.98 L4098.81 3074.18 L4098.2 3074.59 L4098 3075.2 L4098 3075.61 M 4098 3071.4L4098.2 3072.01 L4098.81 3072.42 L4099.84 3072.63 L4100.45 3072.63 L4101.47 3072.42 L4102.09 3072.01 L4102.29 3071.4 L4102.29 3070.99 L4102.09 3070.38 L4101.47 3069.97 L4100.45 3069.76 L4099.84 3069.76 L4098.81 3069.97 L4098.2 3070.38 L4098 3070.99 L4098 3071.4 M 4099.02 3065.34L4098.61 3065.55 L4098.2 3065.96 L4098 3066.37 L4098 3067.19 L4098.2 3067.59 L4098.61 3068 L4099.02 3068.21 L4099.63 3068.41 L4100.65 3068.41 L4101.27 3068.21 L4101.68 3068 L4102.09 3067.59 L4102.29 3067.19 L4102.29 3066.37 L4102.09 3065.96 L4101.68 3065.55 L4101.27 3065.34 M 4098 3063.59L4098 3061.34 L4099.63 3062.56 L4099.63 3061.95 L4099.84 3061.54 L4100.04 3061.34 L4100.65 3061.13 L4101.06 3061.13 L4101.68 3061.34 L4102.09 3061.74 L4102.29 3062.36 L4102.29 3062.97 L4102.09 3063.59 L4101.88 3063.79 L4101.47 3063.99 M 4099.02 3059.58L4098.81 3059.58 L4098.4 3059.37 L4098.2 3059.17 L4098 3058.76 L4098 3057.94 L4098.2 3057.53 L4098.4 3057.33 L4098.81 3057.12 L4099.22 3057.12 L4099.63 3057.33 L4100.25 3057.74 L4102.29 3059.78 L4102.29 3056.92 " fill="none"  stroke-width="0.7"  /></g></g><g xmlns="http://www.w3.org/2000/svg" c_origin="4186,3095.5" c_para="package`FGPMMOPA6H`value`GPS_FGPMMOPA6H" c_partid="part_import_gge136" id="gge136" c_shapetype="group" c_etype="pinpart" layerid="1" ><g c_partid="part_pcbtext" c_origin="4162.5,3069.95" c_rotation="0" c_mirror="" id="gge138" layerid="3" c_shapetype="group" ><path c_fontSize="4.5" c_fontFamily="" c_text="U2" d="M 4162.5 3067.5 L 4162.5 3070.56 L 4162.7 3071.18 L 4163.11 3071.59 L 4163.73 3071.79 L 4164.14 3071.79 L 4164.75 3071.59 L 4165.16 3071.18 L 4165.36 3070.56 L 4165.36 3067.5 M 4166.92 3068.52 L 4166.92 3068.31 L 4167.12 3067.9 L 4167.33 3067.7 L 4167.74 3067.5 L 4168.55 3067.5 L 4168.96 3067.7 L 4169.17 3067.9 L 4169.37 3068.31 L 4169.37 3068.72 L 4169.17 3069.13 L 4168.76 3069.75 L 4166.71 3071.79 L 4169.58 3071.79" fill="none"  stroke-width="0.7" c_note="note_pre" /></g><polyline points="4154.5 3064 4217.5 3064" stroke-width="1" c_shapetype="line" stroke-linecap="round" fill="none" layerid="3" net="" id="gge140" /><polyline points="4217.5 3127 4154.5 3127" stroke-width="1" c_shapetype="line" stroke-linecap="round" fill="none" layerid="3" net="" id="gge141" /><polyline points="4217.5 3071.9 4217.5 3119.1" stroke-width="1" c_shapetype="line" stroke-linecap="round" fill="none" layerid="3" net="" id="gge146" /><polyline points="4217.5 3125 4217.5 3127" stroke-width="1" c_shapetype="line" stroke-linecap="round" fill="none" layerid="3" net="" id="gge147" /><polyline points="4217.5 3064 4217.5 3066" stroke-width="1" c_shapetype="line" stroke-linecap="round" fill="none" layerid="3" net="" id="gge148" /><circle cx="4150.2" cy="3062.4" r="1.2" stroke-width="3.1999936" fill="none" layerid="3" id="gge210" c_shapetype="line" /><g c_partid="part_pcbtext" c_origin="4162.5,3061.95" c_rotation="0" c_mirror="" id="rep15" layerid="3" c_shapetype="group" display="none"><path c_fontSize="4.5" c_fontFamily="" c_text="GPS_FGPMMOPA6H" d="M 4165.57 3060.52L4165.36 3060.11 L4164.95 3059.7 L4164.55 3059.5 L4163.73 3059.5 L4163.32 3059.7 L4162.91 3060.11 L4162.7 3060.52 L4162.5 3061.13 L4162.5 3062.15 L4162.7 3062.77 L4162.91 3063.18 L4163.32 3063.59 L4163.73 3063.79 L4164.55 3063.79 L4164.95 3063.59 L4165.36 3063.18 L4165.57 3062.77 L4165.57 3062.15 M 4164.55 3062.15L4165.57 3062.15 M 4166.92 3059.5L4166.92 3063.79 M 4166.92 3059.5L4168.76 3059.5 L4169.37 3059.7 L4169.58 3059.9 L4169.78 3060.31 L4169.78 3060.93 L4169.58 3061.34 L4169.37 3061.54 L4168.76 3061.75 L4166.92 3061.75 M 4174 3060.11L4173.59 3059.7 L4172.97 3059.5 L4172.15 3059.5 L4171.54 3059.7 L4171.13 3060.11 L4171.13 3060.52 L4171.34 3060.93 L4171.54 3061.13 L4171.95 3061.34 L4173.18 3061.75 L4173.59 3061.95 L4173.79 3062.15 L4174 3062.56 L4174 3063.18 L4173.59 3063.59 L4172.97 3063.79 L4172.15 3063.79 L4171.54 3063.59 L4171.13 3063.18 M 4175.35 3065.22L4179.03 3065.22 M 4180.38 3059.5L4180.38 3063.79 M 4180.38 3059.5L4183.04 3059.5 M 4180.38 3061.54L4182.01 3061.54 M 4187.45 3060.52L4187.25 3060.11 L4186.84 3059.7 L4186.43 3059.5 L4185.61 3059.5 L4185.2 3059.7 L4184.8 3060.11 L4184.59 3060.52 L4184.39 3061.13 L4184.39 3062.15 L4184.59 3062.77 L4184.8 3063.18 L4185.2 3063.59 L4185.61 3063.79 L4186.43 3063.79 L4186.84 3063.59 L4187.25 3063.18 L4187.45 3062.77 L4187.45 3062.15 M 4186.43 3062.15L4187.45 3062.15 M 4188.8 3059.5L4188.8 3063.79 M 4188.8 3059.5L4190.65 3059.5 L4191.26 3059.7 L4191.46 3059.9 L4191.67 3060.31 L4191.67 3060.93 L4191.46 3061.34 L4191.26 3061.54 L4190.65 3061.75 L4188.8 3061.75 M 4193.02 3059.5L4193.02 3063.79 M 4193.02 3059.5L4194.65 3063.79 M 4196.29 3059.5L4194.65 3063.79 M 4196.29 3059.5L4196.29 3063.79 M 4197.64 3059.5L4197.64 3063.79 M 4197.64 3059.5L4199.28 3063.79 M 4200.91 3059.5L4199.28 3063.79 M 4200.91 3059.5L4200.91 3063.79 M 4203.49 3059.5L4203.08 3059.7 L4202.67 3060.11 L4202.47 3060.52 L4202.26 3061.13 L4202.26 3062.15 L4202.47 3062.77 L4202.67 3063.18 L4203.08 3063.59 L4203.49 3063.79 L4204.31 3063.79 L4204.72 3063.59 L4205.13 3063.18 L4205.33 3062.77 L4205.54 3062.15 L4205.54 3061.13 L4205.33 3060.52 L4205.13 3060.11 L4204.72 3059.7 L4204.31 3059.5 L4203.49 3059.5 M 4206.89 3059.5L4206.89 3063.79 M 4206.89 3059.5L4208.73 3059.5 L4209.34 3059.7 L4209.55 3059.9 L4209.75 3060.31 L4209.75 3060.93 L4209.55 3061.34 L4209.34 3061.54 L4208.73 3061.75 L4206.89 3061.75 M 4212.74 3059.5L4211.1 3063.79 M 4212.74 3059.5L4214.37 3063.79 M 4211.71 3062.36L4213.76 3062.36 M 4218.18 3060.11L4217.97 3059.7 L4217.36 3059.5 L4216.95 3059.5 L4216.34 3059.7 L4215.93 3060.31 L4215.72 3061.34 L4215.72 3062.36 L4215.93 3063.18 L4216.34 3063.59 L4216.95 3063.79 L4217.15 3063.79 L4217.77 3063.59 L4218.18 3063.18 L4218.38 3062.56 L4218.38 3062.36 L4218.18 3061.75 L4217.77 3061.34 L4217.15 3061.13 L4216.95 3061.13 L4216.34 3061.34 L4215.93 3061.75 L4215.72 3062.36 M 4219.73 3059.5L4219.73 3063.79 M 4222.6 3059.5L4222.6 3063.79 M 4219.73 3061.54L4222.6 3061.54 " fill="none"  stroke-width="0.7"  /></g></g><g xmlns="http://www.w3.org/2000/svg" c_origin="4138,3117" c_para="package`CON-U.FL`value`CON-HIROSE-COAXIAL-U.FL`" c_partid="part_import_gge303" id="gge303" c_shapetype="group" c_etype="pinpart" layerid="1" c_rotation="270"><g c_partid="part_pcbtext" c_origin="4146.45,3119.42" c_rotation="90" c_mirror="" id="gge305" layerid="3" c_shapetype="group" ><path c_fontSize="4.5" c_fontFamily="" c_text="J1" d="M 4143.9999 3117.3701 L 4147.2699 3117.3701 L 4147.8799 3117.5801 L 4148.0899 3117.7801 L 4148.2899 3118.1901 L 4148.2899 3118.6001 L 4148.0899 3119.0101 L 4147.8799 3119.2201 L 4147.2699 3119.4201 L 4146.8599 3119.4201 M 4144.8099 3116.0201 L 4144.6099 3115.6201 L 4143.9999 3115.0001 L 4148.2899 3115.0001" fill="none"  stroke-width="0.7" c_note="note_pre" /></g><g c_partid="part_pcbtext" c_origin="4154.45,3119.42" c_rotation="90" c_mirror="" id="rep16" layerid="3" c_shapetype="group" display="none"><path c_fontSize="4.5" c_fontFamily="" c_text="CON-HIROSE-COAXIAL-U.FL" d="M 4153.02 3116.35L4152.61 3116.56 L4152.2 3116.97 L4152 3117.37 L4152 3118.19 L4152.2 3118.6 L4152.61 3119.01 L4153.02 3119.22 L4153.63 3119.42 L4154.65 3119.42 L4155.27 3119.22 L4155.68 3119.01 L4156.09 3118.6 L4156.29 3118.19 L4156.29 3117.37 L4156.09 3116.97 L4155.68 3116.56 L4155.27 3116.35 M 4152 3113.77L4152.2 3114.18 L4152.61 3114.59 L4153.02 3114.8 L4153.63 3115 L4154.65 3115 L4155.27 3114.8 L4155.68 3114.59 L4156.09 3114.18 L4156.29 3113.77 L4156.29 3112.96 L4156.09 3112.55 L4155.68 3112.14 L4155.27 3111.93 L4154.65 3111.73 L4153.63 3111.73 L4153.02 3111.93 L4152.61 3112.14 L4152.2 3112.55 L4152 3112.96 L4152 3113.77 M 4152 3110.38L4156.29 3110.38 M 4152 3110.38L4156.29 3107.52 M 4152 3107.52L4156.29 3107.52 M 4154.45 3106.17L4154.45 3102.48 M 4152 3101.13L4156.29 3101.13 M 4152 3098.27L4156.29 3098.27 M 4154.04 3101.13L4154.04 3098.27 M 4152 3096.92L4156.29 3096.92 M 4152 3095.57L4156.29 3095.57 M 4152 3095.57L4152 3093.73 L4152.2 3093.12 L4152.4 3092.91 L4152.81 3092.71 L4153.22 3092.71 L4153.63 3092.91 L4153.84 3093.12 L4154.04 3093.73 L4154.04 3095.57 M 4154.04 3094.14L4156.29 3092.71 M 4152 3090.13L4152.2 3090.54 L4152.61 3090.95 L4153.02 3091.15 L4153.63 3091.36 L4154.65 3091.36 L4155.27 3091.15 L4155.68 3090.95 L4156.09 3090.54 L4156.29 3090.13 L4156.29 3089.31 L4156.09 3088.9 L4155.68 3088.49 L4155.27 3088.29 L4154.65 3088.08 L4153.63 3088.08 L4153.02 3088.29 L4152.61 3088.49 L4152.2 3088.9 L4152 3089.31 L4152 3090.13 M 4152.61 3083.87L4152.2 3084.28 L4152 3084.89 L4152 3085.71 L4152.2 3086.32 L4152.61 3086.73 L4153.02 3086.73 L4153.43 3086.53 L4153.63 3086.32 L4153.84 3085.92 L4154.25 3084.69 L4154.45 3084.28 L4154.65 3084.07 L4155.06 3083.87 L4155.68 3083.87 L4156.09 3084.28 L4156.29 3084.89 L4156.29 3085.71 L4156.09 3086.32 L4155.68 3086.73 M 4152 3082.52L4156.29 3082.52 M 4152 3082.52L4152 3079.86 M 4154.04 3082.52L4154.04 3080.88 M 4156.29 3082.52L4156.29 3079.86 M 4154.45 3078.51L4154.45 3074.83 M 4153.02 3070.41L4152.61 3070.62 L4152.2 3071.02 L4152 3071.43 L4152 3072.25 L4152.2 3072.66 L4152.61 3073.07 L4153.02 3073.27 L4153.63 3073.48 L4154.65 3073.48 L4155.27 3073.27 L4155.68 3073.07 L4156.09 3072.66 L4156.29 3072.25 L4156.29 3071.43 L4156.09 3071.02 L4155.68 3070.62 L4155.27 3070.41 M 4152 3067.83L4152.2 3068.24 L4152.61 3068.65 L4153.02 3068.86 L4153.63 3069.06 L4154.65 3069.06 L4155.27 3068.86 L4155.68 3068.65 L4156.09 3068.24 L4156.29 3067.83 L4156.29 3067.02 L4156.09 3066.61 L4155.68 3066.2 L4155.27 3065.99 L4154.65 3065.79 L4153.63 3065.79 L4153.02 3065.99 L4152.61 3066.2 L4152.2 3066.61 L4152 3067.02 L4152 3067.83 M 4152 3062.8L4156.29 3064.44 M 4152 3062.8L4156.29 3061.17 M 4154.86 3063.82L4154.86 3061.78 M 4152 3059.82L4156.29 3056.95 M 4152 3056.95L4156.29 3059.82 M 4152 3055.6L4156.29 3055.6 M 4152 3052.62L4156.29 3054.25 M 4152 3052.62L4156.29 3050.98 M 4154.86 3053.64L4154.86 3051.59 M 4152 3049.63L4156.29 3049.63 M 4156.29 3049.63L4156.29 3047.17 M 4154.45 3045.82L4154.45 3042.14 M 4152 3040.79L4155.06 3040.79 L4155.68 3040.59 L4156.09 3040.18 L4156.29 3039.57 L4156.29 3039.16 L4156.09 3038.54 L4155.68 3038.13 L4155.06 3037.93 L4152 3037.93 M 4155.27 3036.37L4155.47 3036.58 L4155.68 3036.37 L4155.47 3036.17 L4155.27 3036.37 M 4152 3034.82L4156.29 3034.82 M 4152 3034.82L4152 3032.16 M 4154.04 3034.82L4154.04 3033.18 M 4152 3030.81L4156.29 3030.81 M 4156.29 3030.81L4156.29 3028.36 " fill="none"  stroke-width="0.7"  /></g></g><g xmlns="http://www.w3.org/2000/svg" c_origin="4231,3056" c_para="package`1206`value`10k" c_partid="part_import_gge349" id="gge349" c_shapetype="group" c_etype="pinpart" layerid="1" ><g c_partid="part_pcbtext" c_origin="4222,3064.45" c_rotation="0" c_mirror="" id="gge351" layerid="3" c_shapetype="group" ><path c_fontSize="4.5" c_fontFamily="" c_text="R1" d="M 4222 3062 L 4222 3066.29 M 4222 3062 L 4223.84 3062 L 4224.45 3062.2 L 4224.66 3062.4 L 4224.86 3062.81 L 4224.86 3063.22 L 4224.66 3063.63 L 4224.45 3063.84 L 4223.84 3064.04 L 4222 3064.04 M 4223.43 3064.04 L 4224.86 3066.29 M 4226.21 3062.81 L 4226.62 3062.61 L 4227.24 3062 L 4227.24 3066.29" fill="none"  stroke-width="0.7" c_note="note_pre" /></g><polyline points="4228 3051 4221 3051 4221 3061 4228 3061" stroke-width="1" c_shapetype="line" stroke-linecap="round" fill="none" layerid="3" net="" id="gge353" /><polyline points="4234 3061 4241 3061 4241 3051 4234 3051" stroke-width="1" c_shapetype="line" stroke-linecap="round" fill="none" layerid="3" net="" id="gge354" /><g c_partid="part_pcbtext" c_origin="4222,3056.45" c_rotation="0" c_mirror="" id="rep17" layerid="3" c_shapetype="group" display="none"><path c_fontSize="4.5" c_fontFamily="" c_text="10k" d="M 4222 3054.81L4222.41 3054.61 L4223.02 3054 L4223.02 3058.29 M 4225.6 3054L4224.99 3054.2 L4224.58 3054.81 L4224.37 3055.84 L4224.37 3056.45 L4224.58 3057.47 L4224.99 3058.09 L4225.6 3058.29 L4226.01 3058.29 L4226.62 3058.09 L4227.03 3057.47 L4227.24 3056.45 L4227.24 3055.84 L4227.03 3054.81 L4226.62 3054.2 L4226.01 3054 L4225.6 3054 M 4228.59 3054L4228.59 3058.29 M 4230.63 3055.43L4228.59 3057.47 M 4229.4 3056.65L4230.84 3058.29 " fill="none"  stroke-width="0.7"  /></g></g><g xmlns="http://www.w3.org/2000/svg" c_origin="4200,3056" c_para="package`1206`value`1uF" c_partid="part_import_gge361" id="gge361" c_shapetype="group" c_etype="pinpart" layerid="1" ><g c_partid="part_pcbtext" c_origin="4213.45,3060.08" c_rotation="90" c_mirror="" id="gge363" layerid="3" c_shapetype="group" ><path c_fontSize="4.5" c_fontFamily="" c_text="C6" d="M 4212.0202 3057.0099 L 4211.6102 3057.2199 L 4211.2002 3057.6299 L 4211.0002 3058.0299 L 4211.0002 3058.8499 L 4211.2002 3059.2599 L 4211.6102 3059.6699 L 4212.0202 3059.8799 L 4212.6302 3060.0799 L 4213.6502 3060.0799 L 4214.2702 3059.8799 L 4214.6802 3059.6699 L 4215.0902 3059.2599 L 4215.2902 3058.8499 L 4215.2902 3058.0299 L 4215.0902 3057.6299 L 4214.6802 3057.2199 L 4214.2702 3057.0099 M 4211.6102 3053.2099 L 4211.2002 3053.4099 L 4211.0002 3054.0299 L 4211.0002 3054.4299 L 4211.2002 3055.0499 L 4211.8102 3055.4599 L 4212.8402 3055.6599 L 4213.8602 3055.6599 L 4214.6802 3055.4599 L 4215.0902 3055.0499 L 4215.2902 3054.4299 L 4215.2902 3054.2299 L 4215.0902 3053.6199 L 4214.6802 3053.2099 L 4214.0602 3052.9999 L 4213.8602 3052.9999 L 4213.2502 3053.2099 L 4212.8402 3053.6199 L 4212.6302 3054.2299 L 4212.6302 3054.4299 L 4212.8402 3055.0499 L 4213.2502 3055.4599 L 4213.8602 3055.6599" fill="none"  stroke-width="0.7" c_note="note_pre" /></g><polyline points="4197 3051 4190 3051 4190 3061 4197 3061" stroke-width="1" c_shapetype="line" stroke-linecap="round" fill="none" layerid="3" net="" id="gge365" /><polyline points="4203 3061 4210 3061 4210 3051 4203 3051" stroke-width="1" c_shapetype="line" stroke-linecap="round" fill="none" layerid="3" net="" id="gge366" /><g c_partid="part_pcbtext" c_origin="4221.45,3060.08" c_rotation="90" c_mirror="" id="rep18" layerid="3" c_shapetype="group" display="none"><path c_fontSize="4.5" c_fontFamily="" c_text="1uF" d="M 4219.81 3060.08L4219.61 3059.67 L4219 3059.06 L4223.29 3059.06 M 4220.43 3057.71L4222.47 3057.71 L4223.09 3057.5 L4223.29 3057.09 L4223.29 3056.48 L4223.09 3056.07 L4222.47 3055.46 M 4220.43 3055.46L4223.29 3055.46 M 4219 3054.11L4223.29 3054.11 M 4219 3054.11L4219 3051.45 M 4221.04 3054.11L4221.04 3052.47 " fill="none"  stroke-width="0.7"  /></g></g><g xmlns="http://www.w3.org/2000/svg" c_origin="4144.5,3056.5" c_para="package`1206`value`1uF" c_partid="part_import_gge373" id="gge373" c_shapetype="group" c_etype="pinpart" layerid="1" c_rotation="180"><g c_partid="part_pcbtext" c_origin="4131.45,3059.78" c_rotation="90" c_mirror="" id="gge375" layerid="3" c_shapetype="group" ><path c_fontSize="4.5" c_fontFamily="" c_text="C7" d="M 4130.0201 3056.7099 L 4129.6101 3056.9199 L 4129.2001 3057.3299 L 4129.0001 3057.7299 L 4129.0001 3058.5499 L 4129.2001 3058.9599 L 4129.6101 3059.3699 L 4130.0201 3059.5799 L 4130.6301 3059.7799 L 4131.6501 3059.7799 L 4132.2701 3059.5799 L 4132.6801 3059.3699 L 4133.0901 3058.9599 L 4133.2901 3058.5499 L 4133.2901 3057.7299 L 4133.0901 3057.3299 L 4132.6801 3056.9199 L 4132.2701 3056.7099 M 4129.0001 3052.4999 L 4133.2901 3054.5399 M 4129.0001 3055.3599 L 4129.0001 3052.4999" fill="none"  stroke-width="0.7" c_note="note_pre" /></g><polyline points="4147.5 3061.5 4154.5 3061.5 4154.5 3051.5 4147.5 3051.5" stroke-width="1" c_shapetype="line" stroke-linecap="round" fill="none" layerid="3" net="" id="gge377" /><polyline points="4141.5 3051.5 4134.5 3051.5 4134.5 3061.5 4141.5 3061.5" stroke-width="1" c_shapetype="line" stroke-linecap="round" fill="none" layerid="3" net="" id="gge378" /><g c_partid="part_pcbtext" c_origin="4139.45,3059.78" c_rotation="90" c_mirror="" id="rep19" layerid="3" c_shapetype="group" display="none"><path c_fontSize="4.5" c_fontFamily="" c_text="1uF" d="M 4137.81 3059.78L4137.61 3059.37 L4137 3058.76 L4141.29 3058.76 M 4138.43 3057.41L4140.47 3057.41 L4141.09 3057.2 L4141.29 3056.79 L4141.29 3056.18 L4141.09 3055.77 L4140.47 3055.16 M 4138.43 3055.16L4141.29 3055.16 M 4137 3053.81L4141.29 3053.81 M 4137 3053.81L4137 3051.15 M 4139.04 3053.81L4139.04 3052.17 " fill="none"  stroke-width="0.7"  /></g></g><g xmlns="http://www.w3.org/2000/svg" c_origin="4140,3074" c_para="package`1206`value`0.1uF" c_partid="part_import_gge385" id="gge385" c_shapetype="group" c_etype="pinpart" layerid="1" c_rotation="90"><g c_partid="part_pcbtext" c_origin="4148.45,3084.28" c_rotation="90" c_mirror="" id="gge387" layerid="3" c_shapetype="group" ><path c_fontSize="4.5" c_fontFamily="" c_text="C8" d="M 4147.0202 3081.21 L 4146.6102 3081.42 L 4146.2002 3081.83 L 4146.0002 3082.23 L 4146.0002 3083.05 L 4146.2002 3083.46 L 4146.6102 3083.87 L 4147.0202 3084.08 L 4147.6302 3084.28 L 4148.6502 3084.28 L 4149.2702 3084.08 L 4149.6802 3083.87 L 4150.0902 3083.46 L 4150.2902 3083.05 L 4150.2902 3082.23 L 4150.0902 3081.83 L 4149.6802 3081.42 L 4149.2702 3081.21 M 4146.0002 3078.84 L 4146.2002 3079.45 L 4146.6102 3079.66 L 4147.0202 3079.66 L 4147.4302 3079.45 L 4147.6302 3079.04 L 4147.8402 3078.23 L 4148.0402 3077.61 L 4148.4502 3077.2 L 4148.8602 3077 L 4149.4702 3077 L 4149.8802 3077.2 L 4150.0902 3077.41 L 4150.2902 3078.02 L 4150.2902 3078.84 L 4150.0902 3079.45 L 4149.8802 3079.66 L 4149.4702 3079.86 L 4148.8602 3079.86 L 4148.4502 3079.66 L 4148.0402 3079.25 L 4147.8402 3078.63 L 4147.6302 3077.82 L 4147.4302 3077.41 L 4147.0202 3077.2 L 4146.6102 3077.2 L 4146.2002 3077.41 L 4146.0002 3078.02 L 4146.0002 3078.84" fill="none"  stroke-width="0.7" c_note="note_pre" /></g><polyline points="4135 3077 4135 3084 4145 3084 4145 3077" stroke-width="1" c_shapetype="line" stroke-linecap="round" fill="none" layerid="3" net="" id="gge389" /><polyline points="4145 3071 4145 3064 4135 3064 4135 3071" stroke-width="1" c_shapetype="line" stroke-linecap="round" fill="none" layerid="3" net="" id="gge390" /><g c_partid="part_pcbtext" c_origin="4156.45,3084.28" c_rotation="90" c_mirror="" id="rep20" layerid="3" c_shapetype="group" display="none"><path c_fontSize="4.5" c_fontFamily="" c_text="0.1uF" d="M 4154 3083.05L4154.2 3083.67 L4154.81 3084.08 L4155.84 3084.28 L4156.45 3084.28 L4157.47 3084.08 L4158.09 3083.67 L4158.29 3083.05 L4158.29 3082.64 L4158.09 3082.03 L4157.47 3081.62 L4156.45 3081.42 L4155.84 3081.42 L4154.81 3081.62 L4154.2 3082.03 L4154 3082.64 L4154 3083.05 M 4157.27 3079.86L4157.47 3080.07 L4157.68 3079.86 L4157.47 3079.66 L4157.27 3079.86 M 4154.81 3078.31L4154.61 3077.9 L4154 3077.28 L4158.29 3077.28 M 4155.43 3075.93L4157.47 3075.93 L4158.09 3075.73 L4158.29 3075.32 L4158.29 3074.71 L4158.09 3074.3 L4157.47 3073.68 M 4155.43 3073.68L4158.29 3073.68 M 4154 3072.33L4158.29 3072.33 M 4154 3072.33L4154 3069.68 M 4156.04 3072.33L4156.04 3070.7 " fill="none"  stroke-width="0.7"  /></g></g><g xmlns="http://www.w3.org/2000/svg" c_origin="4140,3095.5" c_para="package`1206`value`10k" c_partid="part_import_gge412" id="gge412" c_shapetype="group" c_etype="pinpart" layerid="1" c_rotation="90"><g c_partid="part_pcbtext" c_origin="4148.45,3105.58" c_rotation="90" c_mirror="" id="gge414" layerid="3" c_shapetype="group" ><path c_fontSize="4.5" c_fontFamily="" c_text="R2" d="M 4146.0002 3105.5799 L 4150.2902 3105.5799 M 4146.0002 3105.5799 L 4146.0002 3103.7399 L 4146.2002 3103.1299 L 4146.4002 3102.9199 L 4146.8102 3102.7199 L 4147.2202 3102.7199 L 4147.6302 3102.9199 L 4147.8402 3103.1299 L 4148.0402 3103.7399 L 4148.0402 3105.5799 M 4148.0402 3104.1499 L 4150.2902 3102.7199 M 4147.0202 3101.1599 L 4146.8102 3101.1599 L 4146.4002 3100.9599 L 4146.2002 3100.7499 L 4146.0002 3100.3399 L 4146.0002 3099.5299 L 4146.2002 3099.1199 L 4146.4002 3098.9099 L 4146.8102 3098.7099 L 4147.2202 3098.7099 L 4147.6302 3098.9099 L 4148.2502 3099.3199 L 4150.2902 3101.3699 L 4150.2902 3098.4999" fill="none"  stroke-width="0.7" c_note="note_pre" /></g><polyline points="4135 3098.5 4135 3105.5 4145 3105.5 4145 3098.5" stroke-width="1" c_shapetype="line" stroke-linecap="round" fill="none" layerid="3" net="" id="gge416" /><polyline points="4145 3092.5 4145 3085.5 4135 3085.5 4135 3092.5" stroke-width="1" c_shapetype="line" stroke-linecap="round" fill="none" layerid="3" net="" id="gge417" /><g c_partid="part_pcbtext" c_origin="4156.45,3105.58" c_rotation="90" c_mirror="" id="rep21" layerid="3" c_shapetype="group" display="none"><path c_fontSize="4.5" c_fontFamily="" c_text="10k" d="M 4154.81 3105.58L4154.61 3105.17 L4154 3104.56 L4158.29 3104.56 M 4154 3101.98L4154.2 3102.59 L4154.81 3103 L4155.84 3103.21 L4156.45 3103.21 L4157.47 3103 L4158.09 3102.59 L4158.29 3101.98 L4158.29 3101.57 L4158.09 3100.96 L4157.47 3100.55 L4156.45 3100.34 L4155.84 3100.34 L4154.81 3100.55 L4154.2 3100.96 L4154 3101.57 L4154 3101.98 M 4154 3098.99L4158.29 3098.99 M 4155.43 3096.95L4157.47 3098.99 M 4156.65 3098.18L4158.29 3096.74 " fill="none"  stroke-width="0.7"  /></g></g><g xmlns="http://www.w3.org/2000/svg" c_origin="4238,3123" c_para="package`HDR-6X2H/2.54`value`2*6P header" c_partid="part_import_gge539" id="gge539" c_shapetype="group" c_etype="pinpart" layerid="1" c_rotation="180"><g c_partid="part_pcbtext" c_origin="4230,3067.45" c_rotation="0" c_mirror="" id="gge541" layerid="3" c_shapetype="group" ><path c_fontSize="4.5" c_fontFamily="" c_text="P1" d="M 4230 3065 L 4230 3069.29 M 4230 3065 L 4231.84 3065 L 4232.45 3065.2 L 4232.66 3065.4 L 4232.86 3065.81 L 4232.86 3066.43 L 4232.66 3066.84 L 4232.45 3067.04 L 4231.84 3067.25 L 4230 3067.25 M 4234.21 3065.81 L 4234.62 3065.61 L 4235.24 3065 L 4235.24 3069.29" fill="none"  stroke-width="0.7" c_note="note_pre" /></g><polyline points="4243 3128 4243 3068 4248 3068 4248 3128 4243 3128" stroke-width="0.8" c_shapetype="line" stroke-linecap="round" fill="none" layerid="3" net="" id="gge579" /><polyline points="4245.5 3128 4243 3125.5" stroke-width="0.8" c_shapetype="line" stroke-linecap="round" fill="none" layerid="3" net="" id="gge580" /><polyline points="4248 3121.333 4261.333 3121.333 4263 3123 4261.333 3124.667 4248 3124.667" stroke-width="0.8" c_shapetype="line" stroke-linecap="round" fill="none" layerid="3" net="" id="gge581" /><polyline points="4248 3111.333 4261.333 3111.333 4263 3113 4261.333 3114.667 4248 3114.667" stroke-width="0.8" c_shapetype="line" stroke-linecap="round" fill="none" layerid="3" net="" id="gge582" /><polyline points="4248 3101.333 4261.333 3101.333 4263 3103 4261.333 3104.667 4248 3104.667" stroke-width="0.8" c_shapetype="line" stroke-linecap="round" fill="none" layerid="3" net="" id="gge583" /><polyline points="4248 3091.333 4261.333 3091.333 4263 3093 4261.333 3094.667 4248 3094.667" stroke-width="0.8" c_shapetype="line" stroke-linecap="round" fill="none" layerid="3" net="" id="gge584" /><polyline points="4248 3081.333 4261.333 3081.333 4263 3083 4261.333 3084.667 4248 3084.667" stroke-width="0.8" c_shapetype="line" stroke-linecap="round" fill="none" layerid="3" net="" id="gge585" /><polyline points="4248 3071.333 4261.333 3071.333 4263 3073 4261.333 3074.667 4248 3074.667" stroke-width="0.8" c_shapetype="line" stroke-linecap="round" fill="none" layerid="3" net="" id="gge586" /><g c_partid="part_pad" c_etype="pinpart" c_origin="4238,3123" layerid="11" number="1" net="U4_29" plated ="Y" c_shapetype="group" id="gge543" c_rotation="90" c_width="6.2" c_height="6.2" title="U4_29" c_shape="RECT"><polygon points="4234.9 3126.1 4234.9 3119.9 4241.1 3119.9 4241.1 3126.1" stroke-width="0" /><circle cx="4238" cy="3123" r="1.75" stroke-width="0" /></g><g c_partid="part_pad" c_etype="pinpart" c_origin="4228,3123" layerid="11" number="2" net="" plated ="Y" c_shapetype="group" id="gge546" c_rotation="90" c_width="6.2" c_height="6.2" title="" c_shape="ELLIPSE"><ellipse cx="4228" cy="3123" rx="3.1" ry="3.1" stroke-width="0" /><circle cx="4228" cy="3123" r="1.75" stroke-width="0" /></g><g c_partid="part_pad" c_etype="pinpart" c_origin="4238,3113" layerid="11" number="3" net="U4_14" plated ="Y" c_shapetype="group" id="gge549" c_rotation="90" c_width="6.2" c_height="6.2" title="U4_14" c_shape="ELLIPSE"><ellipse cx="4238" cy="3113" rx="3.1" ry="3.1" stroke-width="0" /><circle cx="4238" cy="3113" r="1.75" stroke-width="0" /></g><g c_partid="part_pad" c_etype="pinpart" c_origin="4228,3113" layerid="11" number="4" net="U4_31" plated ="Y" c_shapetype="group" id="gge552" c_rotation="90" c_width="6.2" c_height="6.2" title="U4_31" c_shape="ELLIPSE"><ellipse cx="4228" cy="3113" rx="3.1" ry="3.1" stroke-width="0" /><circle cx="4228" cy="3113" r="1.75" stroke-width="0" /></g><g c_partid="part_pad" c_etype="pinpart" c_origin="4238,3103" layerid="11" number="5" net="U4_15" plated ="Y" c_shapetype="group" id="gge555" c_rotation="90" c_width="6.2" c_height="6.2" title="U4_15" c_shape="ELLIPSE"><ellipse cx="4238" cy="3103" rx="3.1" ry="3.1" stroke-width="0" /><circle cx="4238" cy="3103" r="1.75" stroke-width="0" /></g><g c_partid="part_pad" c_etype="pinpart" c_origin="4228,3103" layerid="11" number="6" net="U4_30" plated ="Y" c_shapetype="group" id="gge558" c_rotation="90" c_width="6.2" c_height="6.2" title="U4_30" c_shape="ELLIPSE"><ellipse cx="4228" cy="3103" rx="3.1" ry="3.1" stroke-width="0" /><circle cx="4228" cy="3103" r="1.75" stroke-width="0" /></g><g c_partid="part_pad" c_etype="pinpart" c_origin="4238,3093" layerid="11" number="7" net="U4_16" plated ="Y" c_shapetype="group" id="gge561" c_rotation="90" c_width="6.2" c_height="6.2" title="U4_16" c_shape="ELLIPSE"><ellipse cx="4238" cy="3093" rx="3.1" ry="3.1" stroke-width="0" /><circle cx="4238" cy="3093" r="1.75" stroke-width="0" /></g><g c_partid="part_pad" c_etype="pinpart" c_origin="4228,3093" layerid="11" number="8" net="U4_8" plated ="Y" c_shapetype="group" id="gge564" c_rotation="90" c_width="6.2" c_height="6.2" title="U4_8" c_shape="ELLIPSE"><ellipse cx="4228" cy="3093" rx="3.1" ry="3.1" stroke-width="0" /><circle cx="4228" cy="3093" r="1.75" stroke-width="0" /></g><g c_partid="part_pad" c_etype="pinpart" c_origin="4238,3083" layerid="11" number="9" net="U4_17" plated ="Y" c_shapetype="group" id="gge567" c_rotation="90" c_width="6.2" c_height="6.2" title="U4_17" c_shape="ELLIPSE"><ellipse cx="4238" cy="3083" rx="3.1" ry="3.1" stroke-width="0" /><circle cx="4238" cy="3083" r="1.75" stroke-width="0" /></g><g c_partid="part_pad" c_etype="pinpart" c_origin="4228,3083" layerid="11" number="10" net="U4_7" plated ="Y" c_shapetype="group" id="gge570" c_rotation="90" c_width="6.2" c_height="6.2" title="U4_7" c_shape="ELLIPSE"><ellipse cx="4228" cy="3083" rx="3.1" ry="3.1" stroke-width="0" /><circle cx="4228" cy="3083" r="1.75" stroke-width="0" /></g><g c_partid="part_pad" c_etype="pinpart" c_origin="4238,3073" layerid="11" number="11" net="GND" plated ="Y" c_shapetype="group" id="gge573" c_rotation="90" c_width="6.2" c_height="6.2" title="GND" c_shape="ELLIPSE"><ellipse cx="4238" cy="3073" rx="3.1" ry="3.1" stroke-width="0" /><circle cx="4238" cy="3073" r="1.75" stroke-width="0" /></g><g c_partid="part_pad" c_etype="pinpart" c_origin="4228,3073" layerid="11" number="12" net="VCC" plated ="Y" c_shapetype="group" id="gge576" c_rotation="90" c_width="6.2" c_height="6.2" title="VCC" c_shape="ELLIPSE"><ellipse cx="4228" cy="3073" rx="3.1" ry="3.1" stroke-width="0" /><circle cx="4228" cy="3073" r="1.75" stroke-width="0" /></g><g c_partid="part_pcbtext" c_origin="4230,3059.45" c_rotation="0" c_mirror="" id="rep22" layerid="3" c_shapetype="group" display="none"><path c_fontSize="4.5" c_fontFamily="" c_text="2*6P header" d="M 4230.2 3058.02L4230.2 3057.81 L4230.41 3057.4 L4230.61 3057.2 L4231.02 3057 L4231.84 3057 L4232.25 3057.2 L4232.45 3057.4 L4232.66 3057.81 L4232.66 3058.22 L4232.45 3058.63 L4232.05 3059.25 L4230 3061.29 L4232.86 3061.29 M 4235.24 3058.22L4235.24 3060.68 M 4234.21 3058.84L4236.26 3060.06 M 4236.26 3058.84L4234.21 3060.06 M 4240.06 3057.61L4239.86 3057.2 L4239.25 3057 L4238.84 3057 L4238.22 3057.2 L4237.81 3057.81 L4237.61 3058.84 L4237.61 3059.86 L4237.81 3060.68 L4238.22 3061.09 L4238.84 3061.29 L4239.04 3061.29 L4239.65 3061.09 L4240.06 3060.68 L4240.27 3060.06 L4240.27 3059.86 L4240.06 3059.25 L4239.65 3058.84 L4239.04 3058.63 L4238.84 3058.63 L4238.22 3058.84 L4237.81 3059.25 L4237.61 3059.86 M 4241.62 3057L4241.62 3061.29 M 4241.62 3057L4243.46 3057 L4244.07 3057.2 L4244.28 3057.4 L4244.48 3057.81 L4244.48 3058.43 L4244.28 3058.84 L4244.07 3059.04 L4243.46 3059.25 L4241.62 3059.25 M 4248.98 3057L4248.98 3061.29 M 4248.98 3059.25L4249.6 3058.63 L4250 3058.43 L4250.62 3058.43 L4251.03 3058.63 L4251.23 3059.25 L4251.23 3061.29 M 4252.58 3059.65L4255.04 3059.65 L4255.04 3059.25 L4254.83 3058.84 L4254.63 3058.63 L4254.22 3058.43 L4253.6 3058.43 L4253.2 3058.63 L4252.79 3059.04 L4252.58 3059.65 L4252.58 3060.06 L4252.79 3060.68 L4253.2 3061.09 L4253.6 3061.29 L4254.22 3061.29 L4254.63 3061.09 L4255.04 3060.68 M 4258.84 3058.43L4258.84 3061.29 M 4258.84 3059.04L4258.43 3058.63 L4258.02 3058.43 L4257.41 3058.43 L4257 3058.63 L4256.59 3059.04 L4256.39 3059.65 L4256.39 3060.06 L4256.59 3060.68 L4257 3061.09 L4257.41 3061.29 L4258.02 3061.29 L4258.43 3061.09 L4258.84 3060.68 M 4262.65 3057L4262.65 3061.29 M 4262.65 3059.04L4262.24 3058.63 L4261.83 3058.43 L4261.21 3058.43 L4260.8 3058.63 L4260.4 3059.04 L4260.19 3059.65 L4260.19 3060.06 L4260.4 3060.68 L4260.8 3061.09 L4261.21 3061.29 L4261.83 3061.29 L4262.24 3061.09 L4262.65 3060.68 M 4264 3059.65L4266.45 3059.65 L4266.45 3059.25 L4266.25 3058.84 L4266.04 3058.63 L4265.63 3058.43 L4265.02 3058.43 L4264.61 3058.63 L4264.2 3059.04 L4264 3059.65 L4264 3060.06 L4264.2 3060.68 L4264.61 3061.09 L4265.02 3061.29 L4265.63 3061.29 L4266.04 3061.09 L4266.45 3060.68 M 4267.8 3058.43L4267.8 3061.29 M 4267.8 3059.65L4268 3059.04 L4268.41 3058.63 L4268.82 3058.43 L4269.44 3058.43 " fill="none"  stroke-width="0.7"  /></g></g><g xmlns="http://www.w3.org/2000/svg" c_origin="4172,3056.5" c_para="package`1206`value`FERRITE-BEADC" c_partid="part_import_gge600" id="gge600" c_shapetype="group" c_etype="pinpart" layerid="1" c_rotation="180"><g c_partid="part_pcbtext" c_origin="4158.95,3061.25" c_rotation="90" c_mirror="" id="gge602" layerid="3" c_shapetype="group" ><path c_fontSize="4.5" c_fontFamily="" c_text="FB1" d="M 4156.5002 3061.25 L 4160.7902 3061.25 M 4156.5002 3061.25 L 4156.5002 3058.59 M 4158.5402 3061.25 L 4158.5402 3059.61 M 4156.5002 3057.24 L 4160.7902 3057.24 M 4156.5002 3057.24 L 4156.5002 3055.4 L 4156.7002 3054.79 L 4156.9002 3054.58 L 4157.3102 3054.38 L 4157.7202 3054.38 L 4158.1302 3054.58 L 4158.3402 3054.79 L 4158.5402 3055.4 M 4158.5402 3057.24 L 4158.5402 3055.4 L 4158.7502 3054.79 L 4158.9502 3054.58 L 4159.3602 3054.38 L 4159.9702 3054.38 L 4160.3802 3054.58 L 4160.5902 3054.79 L 4160.7902 3055.4 L 4160.7902 3057.24 M 4157.3102 3053.03 L 4157.1102 3052.62 L 4156.5002 3052 L 4160.7902 3052" fill="none"  stroke-width="0.7" c_note="note_pre" /></g><polyline points="4175 3061.5 4182 3061.5 4182 3051.5 4175 3051.5" stroke-width="1" c_shapetype="line" stroke-linecap="round" fill="none" layerid="3" net="" id="gge604" /><polyline points="4169 3051.5 4162 3051.5 4162 3061.5 4169 3061.5" stroke-width="1" c_shapetype="line" stroke-linecap="round" fill="none" layerid="3" net="" id="gge605" /><g c_partid="part_pcbtext" c_origin="4166.95,3061.25" c_rotation="90" c_mirror="" id="rep23" layerid="3" c_shapetype="group" display="none"><path c_fontSize="4.5" c_fontFamily="" c_text="FERRITE-BEADC" d="M 4164.5 3061.25L4168.79 3061.25 M 4164.5 3061.25L4164.5 3058.59 M 4166.54 3061.25L4166.54 3059.61 M 4164.5 3057.24L4168.79 3057.24 M 4164.5 3057.24L4164.5 3054.58 M 4166.54 3057.24L4166.54 3055.6 M 4168.79 3057.24L4168.79 3054.58 M 4164.5 3053.23L4168.79 3053.23 M 4164.5 3053.23L4164.5 3051.39 L4164.7 3050.78 L4164.9 3050.57 L4165.31 3050.37 L4165.72 3050.37 L4166.13 3050.57 L4166.34 3050.78 L4166.54 3051.39 L4166.54 3053.23 M 4166.54 3051.8L4168.79 3050.37 M 4164.5 3049.02L4168.79 3049.02 M 4164.5 3049.02L4164.5 3047.18 L4164.7 3046.56 L4164.9 3046.36 L4165.31 3046.15 L4165.72 3046.15 L4166.13 3046.36 L4166.34 3046.56 L4166.54 3047.18 L4166.54 3049.02 M 4166.54 3047.59L4168.79 3046.15 M 4164.5 3044.8L4168.79 3044.8 M 4164.5 3042.02L4168.79 3042.02 M 4164.5 3043.45L4164.5 3040.59 M 4164.5 3039.24L4168.79 3039.24 M 4164.5 3039.24L4164.5 3036.58 M 4166.54 3039.24L4166.54 3037.6 M 4168.79 3039.24L4168.79 3036.58 M 4166.95 3035.23L4166.95 3031.55 M 4164.5 3030.2L4168.79 3030.2 M 4164.5 3030.2L4164.5 3028.36 L4164.7 3027.75 L4164.9 3027.54 L4165.31 3027.34 L4165.72 3027.34 L4166.13 3027.54 L4166.34 3027.75 L4166.54 3028.36 M 4166.54 3030.2L4166.54 3028.36 L4166.75 3027.75 L4166.95 3027.54 L4167.36 3027.34 L4167.97 3027.34 L4168.38 3027.54 L4168.59 3027.75 L4168.79 3028.36 L4168.79 3030.2 M 4164.5 3025.99L4168.79 3025.99 M 4164.5 3025.99L4164.5 3023.33 M 4166.54 3025.99L4166.54 3024.35 M 4168.79 3025.99L4168.79 3023.33 M 4164.5 3020.34L4168.79 3021.98 M 4164.5 3020.34L4168.79 3018.7 M 4167.36 3021.36L4167.36 3019.32 M 4164.5 3017.35L4168.79 3017.35 M 4164.5 3017.35L4164.5 3015.92 L4164.7 3015.31 L4165.11 3014.9 L4165.52 3014.7 L4166.13 3014.49 L4167.15 3014.49 L4167.77 3014.7 L4168.18 3014.9 L4168.59 3015.31 L4168.79 3015.92 L4168.79 3017.35 M 4165.52 3010.07L4165.11 3010.28 L4164.7 3010.69 L4164.5 3011.1 L4164.5 3011.91 L4164.7 3012.32 L4165.11 3012.73 L4165.52 3012.94 L4166.13 3013.14 L4167.15 3013.14 L4167.77 3012.94 L4168.18 3012.73 L4168.59 3012.32 L4168.79 3011.91 L4168.79 3011.1 L4168.59 3010.69 L4168.18 3010.28 L4167.77 3010.07 " fill="none"  stroke-width="0.7"  /></g></g><g xmlns="http://www.w3.org/2000/svg" c_origin="4174.5,3104" c_para="package`TQFP-32_7X7X08P`value`ATMEGA328P-AU" c_partid="part_import_gge436" id="gge436" c_shapetype="group" c_etype="pinpart" layerid="2" c_rotation="135"></g><g xmlns="http://www.w3.org/2000/svg" c_origin="4153,3064" c_para="package`1206`value`10uF" c_partid="part_import_gge211" id="gge211" c_shapetype="group" c_etype="pinpart" layerid="2" c_rotation="270"></g><g xmlns="http://www.w3.org/2000/svg" c_origin="4141,3064" c_para="package`1206`value`33pF" c_partid="part_import_gge235" id="gge235" c_shapetype="group" c_etype="pinpart" layerid="2" c_rotation="270"></g><g xmlns="http://www.w3.org/2000/svg" c_origin="4174,3064" c_para="package`SOD-123`value`MMSZ5231BT1G" c_partid="part_import_gge247" id="gge247" c_shapetype="group" c_etype="pinpart" layerid="2" c_rotation="270"></g><g xmlns="http://www.w3.org/2000/svg" c_origin="4128,3116" c_para="package`SOT-363`value`SMF05CT1G" c_partid="part_import_gge276" id="gge276" c_shapetype="group" c_etype="pinpart" layerid="2" c_rotation="90"></g><g xmlns="http://www.w3.org/2000/svg" c_origin="4165,3065" c_para="package`CASE-A_3216`value`100uF" c_partid="part_import_gge587" id="gge587" c_shapetype="group" c_etype="pinpart" layerid="2" c_rotation="90"></g><g xmlns="http://www.w3.org/2000/svg" c_origin="4115,3084" c_para="package`17.2MM*15.36MM*1.38MM`value`SIM-002-T6" c_partid="part_import_gge612" id="gge612" c_shapetype="group" c_etype="pinpart" layerid="2" c_rotation="270"></g><g xmlns="http://www.w3.org/2000/svg" c_origin="4129,3064" c_para="package`1206`value`10pF" c_partid="part_import_gge223" id="gge223" c_shapetype="group" c_etype="pinpart" layerid="2" c_rotation="270"></g><g xmlns="http://www.w3.org/2000/svg" c_origin="4138,3092" c_para="package`1206`value`10uF" c_partid="part_import_gge264" id="gge264" c_shapetype="group" c_etype="pinpart" layerid="2" c_rotation="90"></g><g xmlns="http://www.w3.org/2000/svg" c_origin="4202,3061.5" c_para="package`TSOT-23-5`value`LTC1844ES5-3.3#TRPBF" c_partid="part_import_gge326" id="gge326" c_shapetype="group" c_etype="pinpart" layerid="2" ></g><g xmlns="http://www.w3.org/2000/svg" c_origin="4142,3111" c_para="package`SOD-323`value`1N4148WS T4" c_partid="part_import_gge397" id="gge397" c_shapetype="group" c_etype="pinpart" layerid="2" c_rotation="180"></g><g xmlns="http://www.w3.org/2000/svg" c_origin="4150,3092" c_para="package`1206`value`1uF" c_partid="part_import_gge424" id="gge424" c_shapetype="group" c_etype="pinpart" layerid="2" c_rotation="90"></g><polyline points="4049 3048.5 4246.5 3048.5 4246.5 3131.5 4049 3131.5 4049 3048.5" stroke-width="1" c_shapetype="line" stroke-linecap="round" fill="none" layerid="10" net="$BoardOutlineNet" id="gge664" /><g c_partid="part_via" c_etype="pinpart" c_shapetype="group" net="U4_16" c_origin="4222.5,3102" layerid="11" id="gge990" ><circle cx="4222.5" cy="3102" r="1.22" stroke-width="0" /><circle cx="4222.5" cy="3102" r="0.6"  stroke-width="0" /></g><g c_partid="part_via" c_etype="pinpart" c_shapetype="group" net="U4_17" c_origin="4221.5,3112.5" layerid="11" id="gge998" ><circle cx="4221.5" cy="3112.5" r="1.22" stroke-width="0" /><circle cx="4221.5" cy="3112.5" r="0.6"  stroke-width="0" /></g><g c_partid="part_via" c_etype="pinpart" c_shapetype="group" net="U5_5" c_origin="4188,3064" layerid="11" id="gge1036" ><circle cx="4188" cy="3064" r="1.22" stroke-width="0" /><circle cx="4188" cy="3064" r="0.6"  stroke-width="0" /></g><g c_partid="part_via" c_etype="pinpart" c_shapetype="group" net="U2_P$10" c_origin="4140.5,3116.5" layerid="11" id="gge1067" ><circle cx="4140.5" cy="3116.5" r="1.22" stroke-width="0" /><circle cx="4140.5" cy="3116.5" r="0.6"  stroke-width="0" /></g><g c_partid="part_via" c_etype="pinpart" c_shapetype="group" net="U4_13" c_origin="4163.5,3104" layerid="11" id="gge1075" ><circle cx="4163.5" cy="3104" r="1.22" stroke-width="0" /><circle cx="4163.5" cy="3104" r="0.6"  stroke-width="0" /></g><g c_partid="part_via" c_etype="pinpart" c_shapetype="group" net="U4_13" c_origin="4200.5,3096" layerid="11" id="gge1079" ><circle cx="4200.5" cy="3096" r="1.22" stroke-width="0" /><circle cx="4200.5" cy="3096" r="0.6"  stroke-width="0" /></g><g c_partid="part_via" c_etype="pinpart" c_shapetype="group" net="U2_P$9" c_origin="4201,3102.5" layerid="11" id="gge1089" ><circle cx="4201" cy="3102.5" r="1.22" stroke-width="0" /><circle cx="4201" cy="3102.5" r="0.6"  stroke-width="0" /></g><g c_partid="part_via" c_etype="pinpart" c_shapetype="group" net="VCC" c_origin="4207,3062" layerid="11" id="gge1127" ><circle cx="4207" cy="3062" r="1.22" stroke-width="0" /><circle cx="4207" cy="3062" r="0.6"  stroke-width="0" /></g><g c_partid="part_via" c_etype="pinpart" c_shapetype="group" net="U5_3" c_origin="4229,3060.5" layerid="11" id="gge1150" ><circle cx="4229" cy="3060.5" r="1.22" stroke-width="0" /><circle cx="4229" cy="3060.5" r="0.6"  stroke-width="0" /></g><g c_partid="part_via" c_etype="pinpart" c_shapetype="group" net="VCC" c_origin="4120,3066.5" layerid="11" id="gge1164" ><circle cx="4120" cy="3066.5" r="1.22" stroke-width="0" /><circle cx="4120" cy="3066.5" r="0.6"  stroke-width="0" /></g><g c_partid="part_via" c_etype="pinpart" c_shapetype="group" net="U1_15" c_origin="4108.5,3089.5" layerid="11" id="gge1183" ><circle cx="4108.5" cy="3089.5" r="1.22" stroke-width="0" /><circle cx="4108.5" cy="3089.5" r="0.6"  stroke-width="0" /></g><g c_partid="part_via" c_etype="pinpart" c_shapetype="group" net="U1_16" c_origin="4105,3087.5" layerid="11" id="gge1186" ><circle cx="4105" cy="3087.5" r="1.22" stroke-width="0" /><circle cx="4105" cy="3087.5" r="0.6"  stroke-width="0" /></g><g c_partid="part_via" c_etype="pinpart" c_shapetype="group" net="U1_17" c_origin="4105,3094.5" layerid="11" id="gge1189" ><circle cx="4105" cy="3094.5" r="1.22" stroke-width="0" /><circle cx="4105" cy="3094.5" r="0.6"  stroke-width="0" /></g><g c_partid="part_via" c_etype="pinpart" c_shapetype="group" net="U1_18" c_origin="4107,3104.5" layerid="11" id="gge1192" ><circle cx="4107" cy="3104.5" r="1.22" stroke-width="0" /><circle cx="4107" cy="3104.5" r="0.6"  stroke-width="0" /></g><g c_partid="part_via" c_etype="pinpart" c_shapetype="group" net="U2_P$4" c_origin="4162.1,3086.1" layerid="11" id="gge1263" ><circle cx="4162.1" cy="3086.1" r="1.22" stroke-width="0" /><circle cx="4162.1" cy="3086.1" r="0.6"  stroke-width="0" /></g><g c_partid="part_via" c_etype="pinpart" c_shapetype="group" net="U1_28" c_origin="4130.5,3110.5" layerid="11" id="gge1282" ><circle cx="4130.5" cy="3110.5" r="1.22" stroke-width="0" /><circle cx="4130.5" cy="3110.5" r="0.6"  stroke-width="0" /></g><g c_partid="part_via" c_etype="pinpart" c_shapetype="group" net="U1_2" c_origin="4107,3069" layerid="11" id="gge1337" ><circle cx="4107" cy="3069" r="1.22" stroke-width="0" /><circle cx="4107" cy="3069" r="0.6"  stroke-width="0" /></g><g c_partid="part_via" c_etype="pinpart" c_shapetype="group" net="U1_1" c_origin="4102.5,3069" layerid="11" id="gge1340" ><circle cx="4102.5" cy="3069" r="1.22" stroke-width="0" /><circle cx="4102.5" cy="3069" r="0.6"  stroke-width="0" /></g><g c_partid="part_pad" c_etype="pinpart" c_origin="4188,3092.13" layerid="11" number="0" net="" plated ="yes" c_shapetype="group" id="gge1381" c_rotation="0" c_width="4.724" c_height="4.724" title="" c_shape="ELLIPSE"><ellipse cx="4188" cy="3092.13" rx="2.362" ry="2.362" stroke-width="0" /><circle cx="4188" cy="3092.13" r="2.362" stroke-width="0" /></g><g c_partid="part_via" c_etype="pinpart" c_shapetype="group" net="GND" c_origin="4173.5,3085" layerid="11" id="gge5472" ><circle cx="4173.5" cy="3085" r="1.22" stroke-width="0" /><circle cx="4173.5" cy="3085" r="0.6"  stroke-width="0" /></g></g></svg>