2800 0 1 0           
9 SolidEdge 12 ACIS 28.0 NT 24 Mon Aug  6 20:28:42 2018 
1 9.9999999999999995e-07 1e-10 
T @52 PSUC4G7ZGJVJ43DUHFM9NF_CH2MVPCQ3M89VFPQ5BBRMMANUJAQ4 
body $-1 -1 -1 $-1 0 $1 $-1 $-1 T 50.549999999999997 -1.7000000000000046 -1.5273573488076402 51.799999999999997 29.400000000000002 8.8726426511923719 #
lump $-1 -1 -1 $-1 $-1 $2 $0 T 50.549999999999997 -1.7000000000000046 -1.5273573488076402 51.799999999999997 29.400000000000002 8.8726426511923719 #
shell $-1 -1 -1 $-1 $-1 $-1 $3 $-1 $1 T 50.549999999999997 -1.7000000000000046 -1.5273573488076402 51.799999999999997 29.400000000000002 8.8726426511923719 #
face $4 -1 -1 $-1 $5 $6 $2 $-1 $7 forward single T 50.549999999999997 28.649999999999999 -1.5273573488076402 51.299999999999997 29.399999999999999 8.8726426511923613 F #
render-rbase-attrib $-1 -1 $8 $-1 $3 1 1 1 1 1 1 1 1 1 1 1 1 0 1 0 1 1 1 $9 $-1 0 0 #
face $10 -1 -1 $-1 $11 $12 $2 $-1 $13 reversed single T 50.549999999999997 -0.75 1.772642651192365 51.299999999999997 7.0045616695593422e-16 8.172642651192362 F #
loop $-1 -1 -1 $-1 $-1 $14 $3 T 50.549999999999997 28.649999999999999 -1.5273573488076402 51.299999999999997 29.399999999999999 8.8726426511923613 unknown #
plane-surface $-1 -1 -1 $-1 50.549999999999997 28.649999999999999 -7.9144653855363192e-15 -0.70710678118654802 0.70710678118654702 -1.9533585143381945e-16 1.7431527984210504e-28 2.7624661031540381e-13 1000 forward_v I I I I #
rgb_color-st-attrib $-1 -1 $-1 $4 $3 2 1 2 1 1 1 1 1 1 1 1 1 1 1 0 1 1 1 0.5058823823928833 0.52941179275512695 0.54901963472366333 #
rh_material-rh_entity $-1 -1 4 4 @5 plain @5 color -4 1 1 1 @5 phong @14 ambient factor -2 1 @14 diffuse factor -2 0.75 @15 specular factor -2 0.5 @8 exponent -2 10 @14 specular color -4 1 1 1 @4 none @5 plain @5 color -4 0 0 0 #
render-rbase-attrib $-1 -1 $15 $-1 $5 1 1 1 1 1 1 1 1 1 1 1 1 0 1 0 1 1 1 $16 $-1 0 0 #
face $17 -1 -1 $-1 $18 $19 $2 $-1 $20 reversed single T 50.549999999999997 -1.7 8.8726426511923613 51.799999999999997 29.399999999999999 8.8726426511923702 F #
loop $-1 -1 -1 $-1 $-1 $21 $5 T 50.549999999999997 -0.75 1.772642651192365 51.299999999999997 7.0045616695593422e-16 8.172642651192362 unknown #
plane-surface $-1 -1 -1 $-1 51.299999999999997 0 1.772642651192365 0.70710678118654702 -0.70710678118654802 7.7390203996637201e-17 2.6147291976315722e-29 1.0944627608686477e-13 1000 forward_v I I I I #
coedge $-1 -1 -1 $-1 $22 $23 $24 $25 reversed $6 $-1 #
rgb_color-st-attrib $-1 -1 $-1 $10 $5 2 1 2 1 1 1 1 1 1 1 1 1 1 1 0 1 1 1 0.5058823823928833 0.52941179275512695 0.54901963472366333 #
rh_material-rh_entity $-1 -1 4 4 @5 plain @5 color -4 1 1 1 @5 phong @14 ambient factor -2 1 @14 diffuse factor -2 0.75 @15 specular factor -2 0.5 @8 exponent -2 10 @14 specular color -4 1 1 1 @4 none @5 plain @5 color -4 0 0 0 #
render-rbase-attrib $-1 -1 $26 $-1 $11 1 1 1 1 1 1 1 1 1 1 1 1 0 1 0 1 1 1 $27 $-1 0 0 #
face $28 -1 -1 $-1 $29 $30 $2 $-1 $31 reversed single T 51.299999999999997 29.399999999999995 -1.52735734880764 51.799999999999997 29.400000000000002 8.8726426511923613 F #
loop $-1 -1 -1 $-1 $-1 $32 $11 T 50.549999999999997 -1.7 8.8726426511923613 51.799999999999997 29.399999999999999 8.8726426511923702 unknown #
plane-surface $-1 -1 -1 $-1 50.549999999999997 29.399999999999999 8.8726426511923613 0 -2.91665128605437e-16 -1 0 1000 -2.9166512860543701e-13 forward_v I I I I #
coedge $-1 -1 -1 $-1 $33 $34 $35 $36 reversed $12 $-1 #
coedge $-1 -1 -1 $-1 $37 $14 $38 $39 reversed $6 $-1 #
coedge $-1 -1 -1 $-1 $14 $37 $40 $41 reversed $6 $-1 #
coedge $-1 -1 -1 $-1 $42 $32 $14 $25 forward $19 $-1 #
edge $-1 -1 -1 $-1 $43 -0.0010606601717798223 $44 0 $24 $45 forward @7 unknown T 50.549999999999997 28.649999999999999 8.8726426511923613 51.299999999999997 29.399999999999999 8.8726426511923613 #
rgb_color-st-attrib $-1 -1 $-1 $17 $11 2 1 2 1 1 1 1 1 1 1 1 1 1 1 0 1 1 1 0.5058823823928833 0.52941179275512695 0.54901963472366333 #
rh_material-rh_entity $-1 -1 4 4 @5 plain @5 color -4 1 1 1 @5 phong @14 ambient factor -2 1 @14 diffuse factor -2 0.75 @15 specular factor -2 0.5 @8 exponent -2 10 @14 specular color -4 1 1 1 @4 none @5 plain @5 color -4 0 0 0 #
render-rbase-attrib $-1 -1 $46 $-1 $18 1 1 1 1 1 1 1 1 1 1 1 1 0 1 0 1 1 1 $47 $-1 0 0 #
face $48 -1 -1 $-1 $49 $50 $2 $-1 $51 forward single T 50.549999999999997 -1.7 -1.527357348807632 51.299999999999997 -0.94999999999999996 8.8726426511923719 F #
loop $-1 -1 -1 $-1 $-1 $52 $18 T 51.299999999999997 29.399999999999995 -1.52735734880764 51.799999999999997 29.400000000000002 8.8726426511923613 unknown #
plane-surface $-1 -1 -1 $-1 50.549999999999997 29.399999999999999 -1.52735734880764 0 -1 2.7624661031540402e-16 0 -2.7624661031540401e-13 -1000 forward_v I I I I #
coedge $-1 -1 -1 $-1 $24 $53 $54 $55 reversed $19 $-1 #
coedge $-1 -1 -1 $-1 $56 $21 $57 $58 reversed $12 $-1 #
coedge $-1 -1 -1 $-1 $21 $56 $59 $60 reversed $12 $-1 #
coedge $-1 -1 -1 $-1 $61 $62 $21 $36 forward $63 $-1 #
edge $-1 -1 -1 $-1 $64 -0.0010606601717798219 $65 -1.7140093409906463e-35 $35 $66 reversed @7 unknown T 50.549999999999997 -0.75 1.772642651192365 51.299999999999997 1.2119876280315739e-32 1.7726426511923652 #
coedge $-1 -1 -1 $-1 $23 $22 $67 $68 reversed $6 $-1 #
coedge $-1 -1 -1 $-1 $54 $52 $22 $39 forward $30 $-1 #
edge $-1 -1 -1 $-1 $69 -0.0104 $43 0 $38 $70 forward @7 unknown T 51.299999999999997 29.399999999999995 -1.52735734880764 51.299999999999997 29.399999999999999 8.8726426511923613 #
coedge $-1 -1 -1 $-1 $71 $72 $23 $41 forward $73 $-1 #
edge $-1 -1 -1 $-1 $44 -0.0104 $74 0 $40 $75 forward @7 unknown T 50.549999999999997 28.649999999999999 -1.52735734880764 50.549999999999997 28.650000000000002 8.8726426511923613 #
coedge $-1 -1 -1 $-1 $76 $24 $72 $77 reversed $19 $-1 #
vertex $-1 -1 -1 $-1 $39 $78 #
vertex $-1 -1 -1 $-1 $25 $79 #
straight-curve $-1 -1 -1 $-1 50.549999999999997 28.649999999999999 8.8726426511923613 -707.10678118654698 -707.10678118654801 2.0623839027255098e-13 F -0.0010606601717798223 F 0 #
rgb_color-st-attrib $-1 -1 $-1 $28 $18 2 1 2 1 1 1 1 1 1 1 1 1 1 1 0 1 1 1 0.5058823823928833 0.52941179275512695 0.54901963472366333 #
rh_material-rh_entity $-1 -1 4 4 @5 plain @5 color -4 1 1 1 @5 phong @14 ambient factor -2 1 @14 diffuse factor -2 0.75 @15 specular factor -2 0.5 @8 exponent -2 10 @14 specular color -4 1 1 1 @4 none @5 plain @5 color -4 0 0 0 #
render-rbase-attrib $-1 -1 $80 $-1 $29 1 1 1 1 1 1 1 1 1 1 1 1 0 1 0 1 1 1 $81 $-1 0 0 #
face $82 -1 -1 $-1 $83 $84 $2 $-1 $85 reversed single T 51.799999999999997 -1.7000000000000046 -1.52735734880764 51.799999999999997 29.400000000000002 8.8726426511923702 F #
loop $-1 -1 -1 $-1 $-1 $86 $29 T 50.549999999999997 -1.7 -1.527357348807632 51.299999999999997 -0.94999999999999996 8.8726426511923719 unknown #
plane-surface $-1 -1 -1 $-1 50.549999999999997 -0.94999999999999996 4.208945973167475e-16 -0.70710678118654702 -0.70710678118654802 3.132814988710025e-16 6.9726111936841922e-29 -4.4304694454394295e-13 -1000 forward_v I I I I #
coedge $-1 -1 -1 $-1 $38 $87 $88 $89 reversed $30 $-1 #
coedge $-1 -1 -1 $-1 $32 $90 $91 $92 forward $19 $-1 #
coedge $-1 -1 -1 $-1 $87 $38 $32 $55 forward $30 $-1 #
edge $-1 -1 -1 $-1 $43 0.00075000000000000067 $93 0.0012500000000000011 $54 $94 forward @7 unknown T 51.299999999999997 29.399999999999999 8.8726426511923613 51.799999999999997 29.399999999999999 8.8726426511923613 #
coedge $-1 -1 -1 $-1 $34 $33 $95 $96 reversed $12 $-1 #
coedge $-1 -1 -1 $-1 $97 $98 $33 $58 forward $99 $-1 #
edge $-1 -1 -1 $-1 $100 -0.0081726426511923612 $64 -0.0017726426511923651 $57 $101 forward @7 unknown T 50.549999999999997 -0.75 1.772642651192365 50.549999999999997 -0.74999999999999911 8.172642651192362 #
coedge $-1 -1 -1 $-1 $102 $103 $34 $60 forward $104 $-1 #
edge $-1 -1 -1 $-1 $65 0 $105 0.006399999999999996 $59 $106 forward @7 unknown T 51.299999999999997 0 1.772642651192365 51.299999999999997 7.0045616695593422e-16 8.172642651192362 #
coedge $-1 -1 -1 $-1 $107 $35 $103 $108 forward $63 $-1 #
coedge $-1 -1 -1 $-1 $35 $109 $97 $110 forward $63 $-1 #
loop $-1 -1 -1 $-1 $-1 $107 $111 T 50.549999999999997 -0.75000000000000355 1.772642651192365 51.799999999999997 17.5 1.7726426511923679 unknown #
vertex $-1 -1 -1 $-1 $110 $112 #
vertex $-1 -1 -1 $-1 $36 $113 #
straight-curve $-1 -1 -1 $-1 51.299999999999997 2.4239752560631445e-32 1.772642651192365 -707.10678118654801 -707.10678118654698 1.1243691066368559e-13 F 1.7140093409906463e-35 F 0.0010606601717798219 #
coedge $-1 -1 -1 $-1 $88 $114 $37 $68 forward $115 $-1 #
edge $-1 -1 -1 $-1 $74 0 $69 0.0010606601717798223 $67 $116 forward @7 unknown T 50.549999999999997 28.649999999999999 -1.5273573488076402 51.299999999999997 29.399999999999999 -1.52735734880764 #
vertex $-1 -1 -1 $-1 $68 $117 #
straight-curve $-1 -1 -1 $-1 51.299999999999997 29.399999999999999 8.8726426511923613 0 2.7624661031540401e-13 1000 F -0.0104 F 0 #
coedge $-1 -1 -1 $-1 $118 $40 $114 $119 forward $73 $-1 #
coedge $-1 -1 -1 $-1 $40 $118 $42 $77 forward $73 $-1 #
loop $-1 -1 -1 $-1 $-1 $72 $83 T 50.549999999999997 -0.95000000000000462 -1.52735734880764 50.549999999999997 28.650000000000002 8.8726426511923702 unknown #
vertex $-1 -1 -1 $-1 $68 $120 #
straight-curve $-1 -1 -1 $-1 50.549999999999997 28.649999999999999 -1.52735734880764 0 -2.7624661031540401e-13 -1000 F -0.0104 F 0 #
coedge $-1 -1 -1 $-1 $90 $42 $121 $122 forward $19 $-1 #
edge $-1 -1 -1 $-1 $123 -0.00095 $44 0.028649999999999998 $72 $124 forward @7 unknown T 50.549999999999997 -0.94999999999999996 8.8726426511923613 50.549999999999997 28.649999999999999 8.8726426511923702 #
point $-1 -1 -1 $-1 51.299999999999997 29.399999999999999 8.8726426511923613 #
point $-1 -1 -1 $-1 50.549999999999997 28.649999999999999 8.8726426511923613 #
rgb_color-st-attrib $-1 -1 $-1 $48 $29 2 1 2 1 1 1 1 1 1 1 1 1 1 1 0 1 1 1 0.5058823823928833 0.52941179275512695 0.54901963472366333 #
rh_material-rh_entity $-1 -1 4 4 @5 plain @5 color -4 1 1 1 @5 phong @14 ambient factor -2 1 @14 diffuse factor -2 0.75 @15 specular factor -2 0.5 @8 exponent -2 10 @14 specular color -4 1 1 1 @4 none @5 plain @5 color -4 0 0 0 #
render-rbase-attrib $-1 -1 $125 $-1 $49 1 1 1 1 1 1 1 1 1 1 1 1 0 1 0 1 1 1 $126 $-1 0 0 #
face $127 -1 -1 $-1 $111 $99 $2 $-1 $128 forward single T 50.549999999999997 -0.95000000000000462 -1.52735734880764 50.549999999999997 28.650000000000002 8.8726426511923702 F #
loop $-1 -1 -1 $-1 $129 $130 $49 T 51.799999999999997 0 1.772642651192365 51.799999999999997 17.5 8.172642651192362 unknown #
plane-surface $-1 -1 -1 $-1 51.799999999999997 0 0 -1 0 0 0 0 1000 forward_v I I I I #
coedge $-1 -1 -1 $-1 $131 $132 $133 $134 reversed $50 $-1 #
coedge $-1 -1 -1 $-1 $52 $54 $135 $136 forward $30 $-1 #
coedge $-1 -1 -1 $-1 $137 $67 $52 $89 forward $115 $-1 #
edge $-1 -1 -1 $-1 $69 0.00075000000000000067 $138 0.0012500000000000011 $88 $139 forward @7 unknown T 51.299999999999997 29.399999999999999 -1.52735734880764 51.799999999999997 29.399999999999999 -1.52735734880764 #
coedge $-1 -1 -1 $-1 $53 $76 $140 $141 forward $19 $-1 #
coedge $-1 -1 -1 $-1 $142 $135 $53 $92 reversed $129 $-1 #
edge $-1 -1 -1 $-1 $143 -0.031099999999999999 $93 0 $53 $144 forward @7 unknown T 51.799999999999997 -1.7 8.8726426511923613 51.799999999999997 29.399999999999999 8.8726426511923702 #
vertex $-1 -1 -1 $-1 $55 $145 #
straight-curve $-1 -1 -1 $-1 50.549999999999997 29.399999999999999 8.8726426511923613 1000 0 0 F 0.00075000000000000067 F 0.0012500000000000011 #
coedge $-1 -1 -1 $-1 $146 $147 $56 $96 forward $148 $-1 #
edge $-1 -1 -1 $-1 $105 -2.5233628800274883e-19 $100 0.0010606601717798219 $95 $149 reversed @7 unknown T 50.549999999999997 -0.75 8.172642651192362 51.299999999999997 7.0045616695593392e-16 8.172642651192362 #
coedge $-1 -1 -1 $-1 $150 $57 $62 $110 reversed $99 $-1 #
coedge $-1 -1 -1 $-1 $57 $150 $146 $151 reversed $99 $-1 #
loop $-1 -1 -1 $-1 $73 $98 $83 T 50.549999999999997 -0.75000000000000355 1.772642651192365 50.549999999999997 17.5 8.172642651192362 unknown #
vertex $-1 -1 -1 $-1 $151 $152 #
straight-curve $-1 -1 -1 $-1 50.549999999999997 -0.75 8.2084707065148608e-17 0 -1.094462760868648e-13 -1000 F -0.0081726426511923612 F -0.0017726426511923651 #
coedge $-1 -1 -1 $-1 $153 $59 $147 $154 forward $104 $-1 #
coedge $-1 -1 -1 $-1 $59 $153 $61 $108 reversed $104 $-1 #
loop $-1 -1 -1 $-1 $-1 $103 $155 T 51.299999999999997 0 1.772642651192365 51.799999999999997 7.0045616695593422e-16 8.172642651192362 unknown #
vertex $-1 -1 -1 $-1 $96 $156 #
straight-curve $-1 -1 -1 $-1 51.299999999999997 0 1.772642651192365 0 1.094462760868648e-13 1000 F 0 F 0.006399999999999996 #
coedge $-1 -1 -1 $-1 $109 $61 $130 $157 reversed $63 $-1 #
edge $-1 -1 -1 $-1 $65 0.00075000000000000067 $158 0.0012500000000000011 $61 $159 forward @7 unknown T 51.299999999999997 0 1.772642651192365 51.799999999999997 0 1.772642651192365 #
coedge $-1 -1 -1 $-1 $62 $107 $160 $161 reversed $63 $-1 #
edge $-1 -1 -1 $-1 $162 0 $64 0.018250000000000002 $62 $163 forward @7 unknown T 50.549999999999997 -0.75000000000000355 1.772642651192365 50.549999999999997 17.5 1.7726426511923679 #
face $164 -1 -1 $-1 $155 $63 $2 $-1 $165 forward single T 50.549999999999997 -0.75000000000000355 1.772642651192365 51.799999999999997 17.5 1.7726426511923679 F #
point $-1 -1 -1 $-1 50.549999999999997 -0.75 1.772642651192365 #
point $-1 -1 -1 $-1 51.299999999999997 0 1.772642651192365 #
coedge $-1 -1 -1 $-1 $67 $133 $71 $119 reversed $115 $-1 #
loop $-1 -1 -1 $-1 $-1 $114 $166 T 50.549999999999997 -1.7 -1.5273573488076402 51.799999999999997 29.399999999999999 -1.5273573488076297 unknown #
straight-curve $-1 -1 -1 $-1 50.549999999999997 28.649999999999999 -1.52735734880764 707.10678118654698 707.10678118654801 -1.562734665912805e-13 F 0 F 0.0010606601717798223 #
point $-1 -1 -1 $-1 51.299999999999997 29.399999999999999 -1.52735734880764 #
coedge $-1 -1 -1 $-1 $72 $71 $132 $167 forward $73 $-1 #
edge $-1 -1 -1 $-1 $74 -0.030349999999999999 $168 -0.00074999999999999991 $71 $169 forward @7 unknown T 50.549999999999997 -0.95000000000000007 -1.52735734880764 50.549999999999997 28.649999999999999 -1.52735734880763 #
point $-1 -1 -1 $-1 50.549999999999997 28.649999999999999 -1.52735734880764 #
coedge $-1 -1 -1 $-1 $132 $131 $76 $122 reversed $50 $-1 #
edge $-1 -1 -1 $-1 $123 0 $170 0.0010606601717798216 $76 $171 forward @7 unknown T 50.549999999999997 -1.7 8.8726426511923702 51.299999999999997 -0.94999999999999996 8.8726426511923702 #
vertex $-1 -1 -1 $-1 $122 $172 #
straight-curve $-1 -1 -1 $-1 50.549999999999997 0 8.8726426511923702 0 1000 -1.9618244988570499e-13 F -0.00095 F 0.028649999999999998 #
rgb_color-st-attrib $-1 -1 $-1 $82 $49 2 1 2 1 1 1 1 1 1 1 1 1 1 1 0 1 1 1 0.5058823823928833 0.52941179275512695 0.54901963472366333 #
rh_material-rh_entity $-1 -1 4 4 @5 plain @5 color -4 1 1 1 @5 phong @14 ambient factor -2 1 @14 diffuse factor -2 0.75 @15 specular factor -2 0.5 @8 exponent -2 10 @14 specular color -4 1 1 1 @4 none @5 plain @5 color -4 0 0 0 #
render-rbase-attrib $-1 -1 $173 $-1 $83 1 1 1 1 1 1 1 1 1 1 1 1 0 1 0 1 1 1 $174 $-1 0 0 #
plane-surface $-1 -1 -1 $-1 50.549999999999997 0 0 -1 0 0 0 0 1000 forward_v I I I I #
loop $-1 -1 -1 $-1 $-1 $91 $49 T 51.799999999999997 -1.7000000000000046 -1.52735734880764 51.799999999999997 29.400000000000002 8.8726426511923702 unknown #
coedge $-1 -1 -1 $-1 $175 $176 $107 $157 forward $84 $-1 #
coedge $-1 -1 -1 $-1 $121 $86 $177 $178 reversed $50 $-1 #
coedge $-1 -1 -1 $-1 $86 $121 $118 $167 reversed $50 $-1 #
coedge $-1 -1 -1 $-1 $114 $179 $86 $134 forward $115 $-1 #
edge $-1 -1 -1 $-1 $180 -0.0010606601717798216 $168 0 $133 $181 forward @7 unknown T 50.549999999999997 -1.7 -1.52735734880763 51.299999999999997 -0.94999999999999996 -1.5273573488076297 #
coedge $-1 -1 -1 $-1 $91 $182 $87 $136 reversed $129 $-1 #
edge $-1 -1 -1 $-1 $93 -0.0104 $138 0 $87 $183 forward @7 unknown T 51.799999999999997 29.399999999999999 -1.52735734880764 51.799999999999997 29.400000000000002 8.8726426511923613 #
coedge $-1 -1 -1 $-1 $179 $88 $182 $184 forward $115 $-1 #
vertex $-1 -1 -1 $-1 $89 $185 #
straight-curve $-1 -1 -1 $-1 50.549999999999997 29.399999999999999 -1.52735734880764 1000 0 0 F 0.00075000000000000067 F 0.0012500000000000011 #
coedge $-1 -1 -1 $-1 $177 $186 $90 $141 reversed $187 $-1 #
edge $-1 -1 -1 $-1 $170 0.00075000000000000067 $143 0.0012500000000000011 $90 $188 forward @7 unknown T 51.299999999999997 -1.7 8.8726426511923702 51.799999999999997 -1.7 8.8726426511923702 #
coedge $-1 -1 -1 $-1 $182 $91 $186 $189 reversed $129 $-1 #
vertex $-1 -1 -1 $-1 $141 $190 #
straight-curve $-1 -1 -1 $-1 51.799999999999997 29.399999999999999 8.8726426511923613 0 1000 -2.9166512860543701e-13 F -0.031099999999999999 F 0 #
point $-1 -1 -1 $-1 51.799999999999997 29.399999999999999 8.8726426511923613 #
coedge $-1 -1 -1 $-1 $191 $95 $98 $151 forward $148 $-1 #
coedge $-1 -1 -1 $-1 $95 $192 $102 $154 reversed $148 $-1 #
loop $-1 -1 -1 $-1 $-1 $192 $193 T 50.549999999999997 -0.75 8.172642651192362 51.799999999999997 17.5 8.172642651192362 unknown #
straight-curve $-1 -1 -1 $-1 51.299999999999997 3.4359876618356295e-16 8.172642651192362 707.10678118654801 707.10678118654698 1.464886004222052e-15 F -0.0010606601717798219 F 2.5233628800274883e-19 #
coedge $-1 -1 -1 $-1 $98 $97 $194 $195 reversed $99 $-1 #
edge $-1 -1 -1 $-1 $100 -0.00075000000000000002 $196 0.017500000000000002 $146 $197 forward @7 unknown T 50.549999999999997 -0.75 8.172642651192362 50.549999999999997 17.5 8.172642651192362 #
point $-1 -1 -1 $-1 50.549999999999997 -0.75 8.172642651192362 #
coedge $-1 -1 -1 $-1 $103 $102 $175 $198 reversed $104 $-1 #
edge $-1 -1 -1 $-1 $105 0.00075000000000000067 $199 0.0012500000000000011 $102 $200 forward @7 unknown T 51.299999999999997 7.0045616695593392e-16 8.172642651192362 51.799999999999997 7.0045616695593392e-16 8.172642651192362 #
face $201 -1 -1 $-1 $193 $104 $2 $-1 $202 forward single T 51.299999999999997 0 1.772642651192365 51.799999999999997 7.0045616695593422e-16 8.172642651192362 F #
point $-1 -1 -1 $-1 51.299999999999997 7.0045616695593392e-16 8.172642651192362 #
edge $-1 -1 -1 $-1 $203 0 $158 0.017500000000000002 $130 $204 forward @7 unknown T 51.799999999999997 0 1.772642651192365 51.799999999999997 17.5 1.7726426511923679 #
vertex $-1 -1 -1 $-1 $108 $205 #
straight-curve $-1 -1 -1 $-1 50.549999999999997 0 1.772642651192365 1000 0 0 F 0.00075000000000000067 F 0.0012500000000000011 #
coedge $-1 -1 -1 $-1 $206 $194 $109 $161 forward $207 $-1 #
edge $-1 -1 -1 $-1 $162 0 $203 0.0012500000000000011 $160 $208 forward @7 unknown T 50.549999999999997 17.5 1.772642651192365 51.799999999999997 17.5 1.772642651192365 #
vertex $-1 -1 -1 $-1 $161 $209 #
straight-curve $-1 -1 -1 $-1 50.549999999999997 17.5 1.772642651192365 0 -1000 1.5900980397191648e-13 F 0 F 0.018250000000000002 #
render-rbase-attrib $-1 -1 $210 $-1 $111 1 1 1 1 1 1 1 1 1 1 1 1 0 1 0 1 1 1 $211 $-1 0 0 #
plane-surface $-1 -1 -1 $-1 50.549999999999997 17.5 1.772642651192365 0 1.5900980397191649e-16 1 0 -1000 1.5900980397191648e-13 forward_v I I I I #
face $212 -1 -1 $-1 $-1 $115 $2 $-1 $213 reversed single T 50.549999999999997 -1.7 -1.5273573488076402 51.799999999999997 29.399999999999999 -1.5273573488076297 F #
edge $-1 -1 -1 $-1 $168 -0.010400000000000001 $123 0 $118 $214 forward @7 unknown T 50.549999999999997 -0.95000000000000462 -1.527357348807632 50.549999999999997 -0.94999999999999996 8.8726426511923702 #
vertex $-1 -1 -1 $-1 $119 $215 #
straight-curve $-1 -1 -1 $-1 50.549999999999997 -1.7 -1.52735734880763 0 -1000 2.2100405589244748e-13 F -0.030349999999999999 F -0.00074999999999999991 #
vertex $-1 -1 -1 $-1 $122 $216 #
straight-curve $-1 -1 -1 $-1 50.549999999999997 -0.94999999999999996 8.8726426511923702 707.10678118654801 -707.10678118654698 2.0623839027255098e-13 F 0 F 0.0010606601717798216 #
point $-1 -1 -1 $-1 50.549999999999997 -0.94999999999999996 8.8726426511923702 #
rgb_color-st-attrib $-1 -1 $-1 $127 $83 2 1 2 1 1 1 1 1 1 1 1 1 1 1 0 1 1 1 0.5058823823928833 0.52941179275512695 0.54901963472366333 #
rh_material-rh_entity $-1 -1 4 4 @5 plain @5 color -4 1 1 1 @5 phong @14 ambient factor -2 1 @14 diffuse factor -2 0.75 @15 specular factor -2 0.5 @8 exponent -2 10 @14 specular color -4 1 1 1 @4 none @5 plain @5 color -4 0 0 0 #
coedge $-1 -1 -1 $-1 $217 $130 $153 $198 forward $84 $-1 #
coedge $-1 -1 -1 $-1 $130 $217 $206 $218 forward $84 $-1 #
coedge $-1 -1 -1 $-1 $219 $140 $131 $178 forward $187 $-1 #
edge $-1 -1 -1 $-1 $170 -0.010400000000000001 $180 0 $177 $220 forward @7 unknown T 51.299999999999997 -1.7 -1.52735734880763 51.299999999999997 -1.6999999999999953 8.8726426511923719 #
coedge $-1 -1 -1 $-1 $133 $137 $219 $221 reversed $115 $-1 #
vertex $-1 -1 -1 $-1 $178 $222 #
straight-curve $-1 -1 -1 $-1 50.549999999999997 -0.94999999999999996 -1.52735734880763 -707.10678118654801 707.10678118654698 -1.5627346659127999e-13 F -0.0010606601717798216 F 0 #
coedge $-1 -1 -1 $-1 $135 $142 $137 $184 reversed $129 $-1 #
straight-curve $-1 -1 -1 $-1 51.799999999999997 29.399999999999999 -1.52735734880764 0 -2.7624661031540401e-13 -1000 F -0.0104 F 0 #
edge $-1 -1 -1 $-1 $138 -0.031099999999999999 $223 0 $137 $224 forward @7 unknown T 51.799999999999997 -1.7 -1.52735734880764 51.799999999999997 29.399999999999999 -1.52735734880763 #
point $-1 -1 -1 $-1 51.799999999999997 29.399999999999999 -1.52735734880764 #
coedge $-1 -1 -1 $-1 $140 $219 $142 $189 forward $187 $-1 #
loop $-1 -1 -1 $-1 $-1 $140 $225 T 51.299999999999997 -1.7000000000000046 -1.527357348807632 51.799999999999997 -1.6999999999999953 8.8726426511923719 unknown #
straight-curve $-1 -1 -1 $-1 50.549999999999997 -1.7 8.8726426511923702 1000 0 0 F 0.00075000000000000067 F 0.0012500000000000011 #
edge $-1 -1 -1 $-1 $223 -0.010400000000000001 $143 0 $186 $226 forward @7 unknown T 51.799999999999997 -1.7000000000000046 -1.527357348807632 51.799999999999997 -1.7 8.8726426511923702 #
point $-1 -1 -1 $-1 51.799999999999997 -1.7 8.8726426511923702 #
coedge $-1 -1 -1 $-1 $192 $146 $227 $228 forward $148 $-1 #
coedge $-1 -1 -1 $-1 $147 $191 $217 $229 reversed $148 $-1 #
face $230 -1 -1 $-1 $231 $148 $2 $-1 $232 forward single T 50.549999999999997 -0.75 8.172642651192362 51.799999999999997 17.5 8.172642651192362 F #
coedge $-1 -1 -1 $-1 $160 $227 $150 $195 forward $207 $-1 #
edge $-1 -1 -1 $-1 $196 0 $162 0.006399999999999996 $194 $233 forward @7 unknown T 50.549999999999997 17.5 1.772642651192365 50.549999999999997 17.5 8.172642651192362 #
vertex $-1 -1 -1 $-1 $228 $234 #
straight-curve $-1 -1 -1 $-1 50.549999999999997 0 8.172642651192362 0 1000 2.0716616545013598e-15 F -0.00075000000000000002 F 0.017500000000000002 #
edge $-1 -1 -1 $-1 $158 0 $199 0.006399999999999996 $175 $235 forward @7 unknown T 51.799999999999997 0 1.772642651192365 51.799999999999997 7.0045616695593422e-16 8.172642651192362 #
vertex $-1 -1 -1 $-1 $154 $236 #
straight-curve $-1 -1 -1 $-1 50.549999999999997 7.0045616695593392e-16 8.172642651192362 1000 0 0 F 0.00075000000000000067 F 0.0012500000000000011 #
render-rbase-attrib $-1 -1 $237 $-1 $155 1 1 1 1 1 1 1 1 1 1 1 1 0 1 0 1 1 1 $238 $-1 0 0 #
plane-surface $-1 -1 -1 $-1 50.549999999999997 0 1.772642651192365 0 1 -1.094462760868648e-16 0 1.094462760868648e-13 1000 forward_v I I I I #
vertex $-1 -1 -1 $-1 $161 $239 #
straight-curve $-1 -1 -1 $-1 51.799999999999997 17.5 1.772642651192365 0 -1000 1.5900980397191648e-13 F 0 F 0.017500000000000002 #
point $-1 -1 -1 $-1 51.799999999999997 0 1.772642651192365 #
coedge $-1 -1 -1 $-1 $227 $160 $176 $218 reversed $207 $-1 #
loop $-1 -1 -1 $-1 $-1 $206 $231 T 50.549999999999997 17.5 1.772642651192365 51.799999999999997 17.5 8.172642651192362 unknown #
straight-curve $-1 -1 -1 $-1 50.549999999999997 17.5 1.772642651192365 1000 0 0 F 0 F 0.0012500000000000011 #
point $-1 -1 -1 $-1 50.549999999999997 17.5 1.772642651192365 #
rgb_color-st-attrib $-1 -1 $-1 $164 $111 2 1 2 1 1 1 1 1 1 1 1 1 1 1 0 1 1 1 0.5058823823928833 0.52941179275512695 0.54901963472366333 #
rh_material-rh_entity $-1 -1 4 4 @5 plain @5 color -4 1 1 1 @5 phong @14 ambient factor -2 1 @14 diffuse factor -2 0.75 @15 specular factor -2 0.5 @8 exponent -2 10 @14 specular color -4 1 1 1 @4 none @5 plain @5 color -4 0 0 0 #
render-rbase-attrib $-1 -1 $240 $-1 $166 1 1 1 1 1 1 1 1 1 1 1 1 0 1 0 1 1 1 $241 $-1 0 0 #
plane-surface $-1 -1 -1 $-1 50.549999999999997 -1.7 -1.52735734880763 0 2.2100405589244749e-16 1 0 -1000 2.2100405589244748e-13 forward_v I I I I #
straight-curve $-1 -1 -1 $-1 50.549999999999997 -0.94999999999999996 8.8726426511923702 0 4.4304694454394301e-13 1000 F -0.010400000000000001 F 0 #
point $-1 -1 -1 $-1 50.549999999999997 -0.94999999999999996 -1.52735734880763 #
point $-1 -1 -1 $-1 51.299999999999997 -1.7 8.8726426511923702 #
coedge $-1 -1 -1 $-1 $176 $175 $192 $229 forward $84 $-1 #
edge $-1 -1 -1 $-1 $242 0 $203 0.006399999999999996 $176 $243 forward @7 unknown T 51.799999999999997 17.5 1.772642651192365 51.799999999999997 17.5 8.172642651192362 #
coedge $-1 -1 -1 $-1 $186 $177 $179 $221 forward $187 $-1 #
straight-curve $-1 -1 -1 $-1 51.299999999999997 -1.7 -1.52735734880763 0 -4.4304694454394301e-13 -1000 F -0.010400000000000001 F 0 #
edge $-1 -1 -1 $-1 $180 0.00075000000000000067 $223 0.0012500000000000011 $219 $244 forward @7 unknown T 51.299999999999997 -1.7 -1.52735734880763 51.799999999999997 -1.7 -1.52735734880763 #
point $-1 -1 -1 $-1 51.299999999999997 -1.7 -1.52735734880763 #
vertex $-1 -1 -1 $-1 $221 $245 #
straight-curve $-1 -1 -1 $-1 51.799999999999997 -1.7 -1.52735734880763 0 -1000 2.2100405589244748e-13 F -0.031099999999999999 F 0 #
face $246 -1 -1 $-1 $166 $187 $2 $-1 $247 reversed single T 51.299999999999997 -1.7000000000000046 -1.527357348807632 51.799999999999997 -1.6999999999999953 8.8726426511923719 F #
straight-curve $-1 -1 -1 $-1 51.799999999999997 -1.7 8.8726426511923702 0 4.4304694454394301e-13 1000 F -0.010400000000000001 F 0 #
coedge $-1 -1 -1 $-1 $194 $206 $191 $228 reversed $207 $-1 #
edge $-1 -1 -1 $-1 $196 0 $242 0.0012500000000000011 $191 $248 forward @7 unknown T 50.549999999999997 17.5 8.172642651192362 51.799999999999997 17.5 8.172642651192362 #
edge $-1 -1 -1 $-1 $199 7.0045616695593393e-19 $242 0.017500000000000002 $217 $249 forward @7 unknown T 51.799999999999997 7.0045616695593392e-16 8.172642651192362 51.799999999999997 17.5 8.172642651192362 #
render-rbase-attrib $-1 -1 $250 $-1 $193 1 1 1 1 1 1 1 1 1 1 1 1 0 1 0 1 1 1 $251 $-1 0 0 #
face $252 -1 -1 $-1 $225 $207 $2 $-1 $253 forward single T 50.549999999999997 17.5 1.772642651192365 51.799999999999997 17.5 8.172642651192362 F #
plane-surface $-1 -1 -1 $-1 50.549999999999997 0 8.172642651192362 0 2.0716616545013598e-18 -1 0 1000 2.0716616545013598e-15 forward_v I I I I #
straight-curve $-1 -1 -1 $-1 50.549999999999997 17.5 8.172642651192362 0 2.6078995473823246e-14 -1000 F 0 F 0.006399999999999996 #
point $-1 -1 -1 $-1 50.549999999999997 17.5 8.172642651192362 #
straight-curve $-1 -1 -1 $-1 51.799999999999997 0 1.772642651192365 0 1.094462760868648e-13 1000 F 0 F 0.006399999999999996 #
point $-1 -1 -1 $-1 51.799999999999997 7.0045616695593392e-16 8.172642651192362 #
rgb_color-st-attrib $-1 -1 $-1 $201 $155 2 1 2 1 1 1 1 1 1 1 1 1 1 1 0 1 1 1 0.5058823823928833 0.52941179275512695 0.54901963472366333 #
rh_material-rh_entity $-1 -1 4 4 @5 plain @5 color -4 1 1 1 @5 phong @14 ambient factor -2 1 @14 diffuse factor -2 0.75 @15 specular factor -2 0.5 @8 exponent -2 10 @14 specular color -4 1 1 1 @4 none @5 plain @5 color -4 0 0 0 #
point $-1 -1 -1 $-1 51.799999999999997 17.5 1.772642651192365 #
rgb_color-st-attrib $-1 -1 $-1 $212 $166 2 1 2 1 1 1 1 1 1 1 1 1 1 1 0 1 1 1 0.5058823823928833 0.52941179275512695 0.54901963472366333 #
rh_material-rh_entity $-1 -1 4 4 @5 plain @5 color -4 1 1 1 @5 phong @14 ambient factor -2 1 @14 diffuse factor -2 0.75 @15 specular factor -2 0.5 @8 exponent -2 10 @14 specular color -4 1 1 1 @4 none @5 plain @5 color -4 0 0 0 #
vertex $-1 -1 -1 $-1 $228 $254 #
straight-curve $-1 -1 -1 $-1 51.799999999999997 17.5 8.172642651192362 0 2.6078995473823246e-14 -1000 F 0 F 0.006399999999999996 #
straight-curve $-1 -1 -1 $-1 50.549999999999997 -1.7 -1.52735734880763 1000 0 0 F 0.00075000000000000067 F 0.0012500000000000011 #
point $-1 -1 -1 $-1 51.799999999999997 -1.7 -1.52735734880763 #
render-rbase-attrib $-1 -1 $255 $-1 $225 1 1 1 1 1 1 1 1 1 1 1 1 0 1 0 1 1 1 $256 $-1 0 0 #
plane-surface $-1 -1 -1 $-1 50.549999999999997 -1.7 8.8726426511923702 0 1 -4.4304694454394302e-16 0 4.4304694454394301e-13 1000 forward_v I I I I #
straight-curve $-1 -1 -1 $-1 50.549999999999997 17.5 8.172642651192362 1000 0 0 F 0 F 0.0012500000000000011 #
straight-curve $-1 -1 -1 $-1 51.799999999999997 0 8.172642651192362 0 1000 2.0716616545013598e-15 F 7.0045616695593393e-19 F 0.017500000000000002 #
rgb_color-st-attrib $-1 -1 $-1 $230 $193 2 1 2 1 1 1 1 1 1 1 1 1 1 1 0 1 1 1 0.5058823823928833 0.52941179275512695 0.54901963472366333 #
rh_material-rh_entity $-1 -1 4 4 @5 plain @5 color -4 1 1 1 @5 phong @14 ambient factor -2 1 @14 diffuse factor -2 0.75 @15 specular factor -2 0.5 @8 exponent -2 10 @14 specular color -4 1 1 1 @4 none @5 plain @5 color -4 0 0 0 #
render-rbase-attrib $-1 -1 $257 $-1 $231 1 1 1 1 1 1 1 1 1 1 1 1 0 1 0 1 1 1 $258 $-1 0 0 #
plane-surface $-1 -1 -1 $-1 50.549999999999997 17.5 8.172642651192362 0 -1 -2.6078995473823247e-17 0 2.6078995473823246e-14 -1000 forward_v I I I I #
point $-1 -1 -1 $-1 51.799999999999997 17.5 8.172642651192362 #
rgb_color-st-attrib $-1 -1 $-1 $246 $225 2 1 2 1 1 1 1 1 1 1 1 1 1 1 0 1 1 1 0.5058823823928833 0.52941179275512695 0.54901963472366333 #
rh_material-rh_entity $-1 -1 4 4 @5 plain @5 color -4 1 1 1 @5 phong @14 ambient factor -2 1 @14 diffuse factor -2 0.75 @15 specular factor -2 0.5 @8 exponent -2 10 @14 specular color -4 1 1 1 @4 none @5 plain @5 color -4 0 0 0 #
rgb_color-st-attrib $-1 -1 $-1 $252 $231 2 1 2 1 1 1 1 1 1 1 1 1 1 1 0 1 1 1 0.5058823823928833 0.52941179275512695 0.54901963472366333 #
rh_material-rh_entity $-1 -1 4 4 @5 plain @5 color -4 1 1 1 @5 phong @14 ambient factor -2 1 @14 diffuse factor -2 0.75 @15 specular factor -2 0.5 @8 exponent -2 10 @14 specular color -4 1 1 1 @4 none @5 plain @5 color -4 0 0 0 #
End-of-ACIS-data 