2800 0 1 0           
9 SolidEdge 12 ACIS 28.0 NT 24 Mon Aug  6 20:29:29 2018 
1 9.9999999999999995e-07 1e-10 
T @52 NNSKJCGZRRF938H4DKMU3CDWN8JMN8Q7CB5VKP7BBC8CG85X2BP3 
body $-1 -1 -1 $-1 0 $1 $-1 $-1 T -4 -1.7000000000000117 -1.5273573488076355 -2.2499999999999876 29.400000000000013 8.8726426511923702 #
lump $-1 -1 -1 $-1 $-1 $2 $0 T -4 -1.7000000000000117 -1.5273573488076355 -2.2499999999999876 29.400000000000013 8.8726426511923702 #
shell $-1 -1 -1 $-1 $-1 $-1 $3 $-1 $1 T -4 -1.7000000000000117 -1.5273573488076355 -2.2499999999999876 29.400000000000013 8.8726426511923702 #
face $4 -1 -1 $-1 $5 $6 $2 $-1 $7 forward single T -3.0000000000000107 -1.7000000000000117 -1.5273573488076355 -2.2499999999999996 -0.94999999999999951 8.8726426511923702 F #
render-rbase-attrib $-1 -1 $8 $-1 $3 1 1 1 1 1 1 1 1 1 1 1 1 0 1 0 1 1 1 $9 $-1 0 0 #
face $10 -1 -1 $-1 $11 $12 $2 $-1 $13 forward single T -3 28.649999999999999 -1.5273573488076355 -2.2499999999999876 29.400000000000013 8.8726426511923702 F #
loop $-1 -1 -1 $-1 $-1 $14 $3 T -3.0000000000000107 -1.7000000000000117 -1.5273573488076355 -2.2499999999999996 -0.94999999999999951 8.8726426511923702 unknown #
plane-surface $-1 -1 -1 $-1 -3 -1.7 -1.5273573488076349 0.70710678118654802 -0.70710678118654702 -1.5850109087772797e-16 0 2.2415439237021351e-13 -1000 forward_v I I I I #
rgb_color-st-attrib $-1 -1 $-1 $4 $3 2 1 2 1 1 1 1 1 1 1 1 1 1 1 0 1 1 1 0.5058823823928833 0.52941179275512695 0.54901963472366333 #
rh_material-rh_entity $-1 -1 4 4 @5 plain @5 color -4 1 1 1 @5 phong @14 ambient factor -2 1 @14 diffuse factor -2 0.75 @15 specular factor -2 0.5 @8 exponent -2 10 @14 specular color -4 1 1 1 @4 none @5 plain @5 color -4 0 0 0 #
render-rbase-attrib $-1 -1 $15 $-1 $5 1 1 1 1 1 1 1 1 1 1 1 1 0 1 0 1 1 1 $16 $-1 0 0 #
face $17 -1 -1 $-1 $18 $19 $2 $-1 $20 forward single T -4 -1.7000000000000022 -1.5273573488076355 -4 29.399999999999999 8.8726426511923702 F #
loop $-1 -1 -1 $-1 $-1 $21 $5 T -3 28.649999999999999 -1.5273573488076355 -2.2499999999999876 29.400000000000013 8.8726426511923702 unknown #
plane-surface $-1 -1 -1 $-1 -3 29.399999999999999 8.8726426511923702 0.70710678118654802 0.70710678118654702 4.0555443440545386e-17 4.3578819960526261e-29 -5.7354058141674349e-14 1000 forward_v I I I I #
coedge $-1 -1 -1 $-1 $22 $23 $24 $25 reversed $6 $-1 #
rgb_color-st-attrib $-1 -1 $-1 $10 $5 2 1 2 1 1 1 1 1 1 1 1 1 1 1 0 1 1 1 0.5058823823928833 0.52941179275512695 0.54901963472366333 #
rh_material-rh_entity $-1 -1 4 4 @5 plain @5 color -4 1 1 1 @5 phong @14 ambient factor -2 1 @14 diffuse factor -2 0.75 @15 specular factor -2 0.5 @8 exponent -2 10 @14 specular color -4 1 1 1 @4 none @5 plain @5 color -4 0 0 0 #
render-rbase-attrib $-1 -1 $26 $-1 $11 1 1 1 1 1 1 1 1 1 1 1 1 0 1 0 1 1 1 $27 $-1 0 0 #
face $28 -1 -1 $-1 $29 $30 $2 $-1 $31 forward single T -4 -1.7000000000000117 -1.5273573488076349 -2.25 29.399999999999999 -1.5273573488076349 F #
loop $-1 -1 -1 $-1 $-1 $32 $11 T -4 -1.7000000000000022 -1.5273573488076355 -4 29.399999999999999 8.8726426511923702 unknown #
plane-surface $-1 -1 -1 $-1 -4 0 0 -1 0 0 0 0 1000 forward_v I I I I #
coedge $-1 -1 -1 $-1 $33 $34 $35 $36 reversed $12 $-1 #
coedge $-1 -1 -1 $-1 $37 $14 $38 $39 reversed $6 $-1 #
coedge $-1 -1 -1 $-1 $14 $37 $40 $41 reversed $6 $-1 #
coedge $-1 -1 -1 $-1 $42 $43 $14 $25 forward $30 $-1 #
edge $-1 -1 -1 $-1 $44 0.02146069080901173 $45 0.022521350980791555 $24 $46 forward @7 unknown T -3.0000000000000107 -1.7000000000000117 -1.5273573488076349 -2.25 -0.94999999999999996 -1.5273573488076349 #
rgb_color-st-attrib $-1 -1 $-1 $17 $11 2 1 2 1 1 1 1 1 1 1 1 1 1 1 0 1 1 1 0.5058823823928833 0.52941179275512695 0.54901963472366333 #
rh_material-rh_entity $-1 -1 4 4 @5 plain @5 color -4 1 1 1 @5 phong @14 ambient factor -2 1 @14 diffuse factor -2 0.75 @15 specular factor -2 0.5 @8 exponent -2 10 @14 specular color -4 1 1 1 @4 none @5 plain @5 color -4 0 0 0 #
render-rbase-attrib $-1 -1 $47 $-1 $18 1 1 1 1 1 1 1 1 1 1 1 1 0 1 0 1 1 1 $48 $-1 0 0 #
face $49 -1 -1 $-1 $50 $51 $2 $-1 $52 forward single T -4 -1.7000000000000022 -1.5273573488076355 -3 -1.6999999999999977 8.8726426511923702 F #
loop $-1 -1 -1 $-1 $-1 $53 $18 T -4 -1.7000000000000117 -1.5273573488076349 -2.25 29.399999999999999 -1.5273573488076349 unknown #
plane-surface $-1 -1 -1 $-1 -2.25 29.399999999999999 -1.5273573488076349 0 2.1115037187176599e-18 -1 0 1000 2.1115037187176599e-15 forward_v I I I I #
coedge $-1 -1 -1 $-1 $54 $55 $56 $57 forward $19 $-1 #
coedge $-1 -1 -1 $-1 $58 $21 $59 $60 reversed $12 $-1 #
coedge $-1 -1 -1 $-1 $21 $58 $61 $62 reversed $12 $-1 #
coedge $-1 -1 -1 $-1 $63 $64 $21 $36 forward $65 $-1 #
edge $-1 -1 -1 $-1 $66 0.021460690809011716 $67 0.022521350980791537 $35 $68 forward @7 unknown T -3 28.649999999999999 8.8726426511923702 -2.2499999999999876 29.400000000000013 8.8726426511923702 #
coedge $-1 -1 -1 $-1 $23 $22 $69 $70 reversed $6 $-1 #
coedge $-1 -1 -1 $-1 $71 $72 $22 $39 forward $73 $-1 #
edge $-1 -1 -1 $-1 $74 -0.010400000000000006 $44 0 $38 $75 forward @7 unknown T -2.25 -0.95000000000000229 -1.5273573488076349 -2.25 -0.94999999999999996 8.8726426511923702 #
coedge $-1 -1 -1 $-1 $76 $77 $23 $41 forward $51 $-1 #
edge $-1 -1 -1 $-1 $45 -0.010400000000000006 $78 0 $40 $79 forward @7 unknown T -3 -1.7 -1.5273573488076355 -3 -1.6999999999999977 8.8726426511923702 #
coedge $-1 -1 -1 $-1 $56 $24 $77 $80 forward $30 $-1 #
coedge $-1 -1 -1 $-1 $24 $81 $71 $82 forward $30 $-1 #
vertex $-1 -1 -1 $-1 $82 $83 #
vertex $-1 -1 -1 $-1 $25 $84 #
straight-curve $-1 -1 -1 $-1 12.925000000000001 14.225 -1.5273573488076349 -707.10678118654755 -707.10678118654755 -1.493058598005869e-15 F 0.02146069080901173 F 0.022521350980791555 #
rgb_color-st-attrib $-1 -1 $-1 $28 $18 2 1 2 1 1 1 1 1 1 1 1 1 1 1 0 1 1 1 0.5058823823928833 0.52941179275512695 0.54901963472366333 #
rh_material-rh_entity $-1 -1 4 4 @5 plain @5 color -4 1 1 1 @5 phong @14 ambient factor -2 1 @14 diffuse factor -2 0.75 @15 specular factor -2 0.5 @8 exponent -2 10 @14 specular color -4 1 1 1 @4 none @5 plain @5 color -4 0 0 0 #
render-rbase-attrib $-1 -1 $85 $-1 $29 1 1 1 1 1 1 1 1 1 1 1 1 0 1 0 1 1 1 $86 $-1 0 0 #
face $87 -1 -1 $-1 $88 $65 $2 $-1 $89 forward single T -4 -1.7000000000000002 8.8726426511923702 -2.2499999999999876 29.400000000000013 8.8726426511923702 F #
loop $-1 -1 -1 $-1 $-1 $77 $29 T -4 -1.7000000000000022 -1.5273573488076355 -3 -1.6999999999999977 8.8726426511923702 unknown #
plane-surface $-1 -1 -1 $-1 -2.25 -1.7 -1.5273573488076349 0 -1 -2.241543923702135e-16 0 2.2415439237021351e-13 -1000 forward_v I I I I #
coedge $-1 -1 -1 $-1 $81 $56 $90 $91 reversed $30 $-1 #
coedge $-1 -1 -1 $-1 $92 $32 $93 $94 forward $19 $-1 #
coedge $-1 -1 -1 $-1 $32 $92 $95 $96 forward $19 $-1 #
coedge $-1 -1 -1 $-1 $53 $42 $32 $57 reversed $30 $-1 #
edge $-1 -1 -1 $-1 $97 0 $98 0.031099999999999999 $32 $99 forward @7 unknown T -4 -1.7 -1.5273573488076349 -4 29.399999999999999 -1.5273573488076349 #
coedge $-1 -1 -1 $-1 $34 $33 $81 $100 reversed $12 $-1 #
coedge $-1 -1 -1 $-1 $72 $71 $33 $60 forward $73 $-1 #
edge $-1 -1 -1 $-1 $101 -0.010400000000000006 $66 0 $59 $102 forward @7 unknown T -2.25 28.649999999999999 -1.5273573488076355 -2.25 28.649999999999999 8.8726426511923702 #
coedge $-1 -1 -1 $-1 $90 $103 $34 $62 forward $104 $-1 #
edge $-1 -1 -1 $-1 $67 -0.010400000000000006 $105 0 $61 $106 forward @7 unknown T -3 29.399999999999999 -1.5273573488076349 -3 29.399999999999999 8.8726426511923702 #
coedge $-1 -1 -1 $-1 $107 $35 $103 $108 forward $65 $-1 #
coedge $-1 -1 -1 $-1 $35 $69 $72 $109 forward $65 $-1 #
loop $-1 -1 -1 $-1 $-1 $64 $50 T -4 -1.7000000000000002 8.8726426511923702 -2.2499999999999876 29.400000000000013 8.8726426511923702 unknown #
vertex $-1 -1 -1 $-1 $60 $110 #
vertex $-1 -1 -1 $-1 $36 $111 #
straight-curve $-1 -1 -1 $-1 12.925000000000001 13.475000000000001 8.8726426511923702 -707.10678118654698 707.10678118654801 1.49305859800587e-15 F 0.021460690809011716 F 0.022521350980791537 #
coedge $-1 -1 -1 $-1 $64 $112 $37 $70 forward $65 $-1 #
edge $-1 -1 -1 $-1 $78 -0.00053033008588991082 $74 0.00053033008588991126 $69 $113 forward @7 unknown T -3 -1.7000000000000002 8.8726426511923702 -2.2499999999999996 -0.94999999999999951 8.8726426511923702 #
coedge $-1 -1 -1 $-1 $59 $38 $43 $82 reversed $73 $-1 #
coedge $-1 -1 -1 $-1 $38 $59 $64 $109 reversed $73 $-1 #
loop $-1 -1 -1 $-1 $-1 $71 $114 T -2.25 -0.95000000000000229 -1.5273573488076355 -2.25 28.649999999999999 8.8726426511923702 unknown #
vertex $-1 -1 -1 $-1 $70 $115 #
straight-curve $-1 -1 -1 $-1 -2.25 -0.94999999999999996 -1.5273573488076349 0 2.2415439237021351e-13 -1000 F -0.010400000000000006 F 0 #
coedge $-1 -1 -1 $-1 $93 $40 $112 $116 forward $51 $-1 #
coedge $-1 -1 -1 $-1 $40 $93 $42 $80 reversed $51 $-1 #
vertex $-1 -1 -1 $-1 $70 $117 #
straight-curve $-1 -1 -1 $-1 -3 -1.7 8.8726426511923702 0 -2.2415439237021351e-13 1000 F -0.010400000000000006 F 0 #
edge $-1 -1 -1 $-1 $45 0.00075000000000000023 $98 0.0017500000000000003 $42 $118 forward @7 unknown T -4 -1.7 -1.5273573488076349 -3 -1.7 -1.5273573488076349 #
coedge $-1 -1 -1 $-1 $43 $53 $58 $100 forward $30 $-1 #
edge $-1 -1 -1 $-1 $101 0.00075000000000000067 $44 0.030349999999999999 $43 $119 forward @7 unknown T -2.25 -0.94999999999999996 -1.5273573488076349 -2.25 28.649999999999999 -1.5273573488076349 #
point $-1 -1 -1 $-1 -2.25 -0.94999999999999996 -1.5273573488076349 #
point $-1 -1 -1 $-1 -3 -1.7 -1.5273573488076349 #
rgb_color-st-attrib $-1 -1 $-1 $49 $29 2 1 2 1 1 1 1 1 1 1 1 1 1 1 0 1 1 1 0.5058823823928833 0.52941179275512695 0.54901963472366333 #
rh_material-rh_entity $-1 -1 4 4 @5 plain @5 color -4 1 1 1 @5 phong @14 ambient factor -2 1 @14 diffuse factor -2 0.75 @15 specular factor -2 0.5 @8 exponent -2 10 @14 specular color -4 1 1 1 @4 none @5 plain @5 color -4 0 0 0 #
render-rbase-attrib $-1 -1 $120 $-1 $50 1 1 1 1 1 1 1 1 1 1 1 1 0 1 0 1 1 1 $121 $-1 0 0 #
face $122 -1 -1 $-1 $114 $104 $2 $-1 $123 forward single T -4 29.399999999999999 -1.5273573488076355 -3 29.399999999999999 8.8726426511923702 F #
plane-surface $-1 -1 -1 $-1 -2.25 -1.7 8.8726426511923702 0 -2.1115037187176599e-18 1 0 -1000 -2.1115037187176599e-15 forward_v I I I I #
coedge $-1 -1 -1 $-1 $95 $61 $53 $91 forward $104 $-1 #
edge $-1 -1 -1 $-1 $105 0.00075000000000000023 $97 0.0017500000000000003 $90 $124 forward @7 unknown T -4 29.399999999999999 -1.5273573488076349 -3 29.399999999999999 -1.5273573488076349 #
coedge $-1 -1 -1 $-1 $55 $54 $107 $125 forward $19 $-1 #
coedge $-1 -1 -1 $-1 $77 $76 $54 $94 reversed $51 $-1 #
edge $-1 -1 -1 $-1 $98 0 $126 0.010400000000000006 $54 $127 forward @7 unknown T -4 -1.7000000000000022 -1.5273573488076349 -4 -1.7 8.8726426511923702 #
coedge $-1 -1 -1 $-1 $103 $90 $55 $96 reversed $104 $-1 #
edge $-1 -1 -1 $-1 $128 0 $97 0.010400000000000006 $55 $129 forward @7 unknown T -4 29.399999999999999 -1.5273573488076355 -4 29.399999999999999 8.8726426511923702 #
vertex $-1 -1 -1 $-1 $91 $130 #
vertex $-1 -1 -1 $-1 $80 $131 #
straight-curve $-1 -1 -1 $-1 -4 29.399999999999999 -1.5273573488076349 0 -1000 -2.1115037187176599e-15 F 0 F 0.031099999999999999 #
edge $-1 -1 -1 $-1 $105 -0.00053033008588991082 $101 0.00053033008588991115 $81 $132 forward @7 unknown T -3 28.649999999999999 -1.5273573488076349 -2.25 29.399999999999999 -1.5273573488076349 #
vertex $-1 -1 -1 $-1 $100 $133 #
straight-curve $-1 -1 -1 $-1 -2.25 28.649999999999999 8.8726426511923702 0 -5.73540581416744e-14 1000 F -0.010400000000000006 F 0 #
coedge $-1 -1 -1 $-1 $61 $95 $63 $108 reversed $104 $-1 #
loop $-1 -1 -1 $-1 $-1 $103 $88 T -4 29.399999999999999 -1.5273573488076355 -3 29.399999999999999 8.8726426511923702 unknown #
vertex $-1 -1 -1 $-1 $100 $134 #
straight-curve $-1 -1 -1 $-1 -3 29.399999999999999 -1.5273573488076349 0 5.73540581416744e-14 -1000 F -0.010400000000000006 F 0 #
coedge $-1 -1 -1 $-1 $112 $63 $92 $125 reversed $65 $-1 #
edge $-1 -1 -1 $-1 $67 0.00075000000000000023 $128 0.0017500000000000003 $63 $135 forward @7 unknown T -4 29.399999999999999 8.8726426511923702 -3 29.399999999999999 8.8726426511923702 #
edge $-1 -1 -1 $-1 $74 0.00074999999999999991 $66 0.030349999999999999 $64 $136 forward @7 unknown T -2.25 -0.95000000000000007 8.8726426511923702 -2.25 28.649999999999999 8.8726426511923702 #
point $-1 -1 -1 $-1 -2.25 28.649999999999999 8.8726426511923702 #
point $-1 -1 -1 $-1 -3 29.399999999999999 8.8726426511923702 #
coedge $-1 -1 -1 $-1 $69 $107 $76 $116 reversed $65 $-1 #
straight-curve $-1 -1 -1 $-1 -2.625 -1.325 8.8726426511923702 707.10678118654755 707.10678118654755 1.493058598005869e-15 F -0.00053033008588991082 F 0.00053033008588991126 #
face $137 -1 -1 $-1 $-1 $73 $2 $-1 $138 reversed single T -2.25 -0.95000000000000229 -1.5273573488076355 -2.25 28.649999999999999 8.8726426511923702 F #
point $-1 -1 -1 $-1 -2.25 -0.94999999999999996 8.8726426511923702 #
edge $-1 -1 -1 $-1 $78 0.00075000000000000023 $126 0.0017500000000000003 $76 $139 forward @7 unknown T -4 -1.7 8.8726426511923702 -3 -1.7 8.8726426511923702 #
point $-1 -1 -1 $-1 -3 -1.7 8.8726426511923702 #
straight-curve $-1 -1 -1 $-1 -2.25 -1.7 -1.5273573488076349 -1000 0 0 F 0.00075000000000000023 F 0.0017500000000000003 #
straight-curve $-1 -1 -1 $-1 -2.25 29.399999999999999 -1.5273573488076349 0 -1000 -2.1115037187176599e-15 F 0.00075000000000000067 F 0.030349999999999999 #
rgb_color-st-attrib $-1 -1 $-1 $87 $50 2 1 2 1 1 1 1 1 1 1 1 1 1 1 0 1 1 1 0.5058823823928833 0.52941179275512695 0.54901963472366333 #
rh_material-rh_entity $-1 -1 4 4 @5 plain @5 color -4 1 1 1 @5 phong @14 ambient factor -2 1 @14 diffuse factor -2 0.75 @15 specular factor -2 0.5 @8 exponent -2 10 @14 specular color -4 1 1 1 @4 none @5 plain @5 color -4 0 0 0 #
render-rbase-attrib $-1 -1 $140 $-1 $88 1 1 1 1 1 1 1 1 1 1 1 1 0 1 0 1 1 1 $141 $-1 0 0 #
plane-surface $-1 -1 -1 $-1 -2.25 29.399999999999999 8.8726426511923702 0 1 5.7354058141674394e-17 0 -5.73540581416744e-14 1000 forward_v I I I I #
straight-curve $-1 -1 -1 $-1 -2.25 29.399999999999999 -1.5273573488076349 -1000 0 0 F 0.00075000000000000023 F 0.0017500000000000003 #
edge $-1 -1 -1 $-1 $126 0 $128 0.031099999999999999 $92 $142 forward @7 unknown T -4 -1.7 8.8726426511923702 -4 29.399999999999999 8.8726426511923702 #
vertex $-1 -1 -1 $-1 $116 $143 #
straight-curve $-1 -1 -1 $-1 -4 -1.7 -1.5273573488076349 0 -2.2415439237021351e-13 1000 F 0 F 0.010400000000000006 #
vertex $-1 -1 -1 $-1 $108 $144 #
straight-curve $-1 -1 -1 $-1 -4 29.399999999999999 8.8726426511923702 0 5.73540581416744e-14 -1000 F 0 F 0.010400000000000006 #
point $-1 -1 -1 $-1 -4 29.399999999999999 -1.5273573488076349 #
point $-1 -1 -1 $-1 -4 -1.7 -1.5273573488076349 #
straight-curve $-1 -1 -1 $-1 -2.625 29.024999999999999 -1.5273573488076349 707.10678118654698 -707.10678118654801 -1.49305859800587e-15 F -0.00053033008588991082 F 0.00053033008588991115 #
point $-1 -1 -1 $-1 -2.25 28.649999999999999 -1.5273573488076349 #
point $-1 -1 -1 $-1 -3 29.399999999999999 -1.5273573488076349 #
straight-curve $-1 -1 -1 $-1 -2.25 29.399999999999999 8.8726426511923702 -1000 0 0 F 0.00075000000000000023 F 0.0017500000000000003 #
straight-curve $-1 -1 -1 $-1 -2.25 -1.7 8.8726426511923702 0 1000 2.1115037187176599e-15 F 0.00074999999999999991 F 0.030349999999999999 #
render-rbase-attrib $-1 -1 $145 $-1 $114 1 1 1 1 1 1 1 1 1 1 1 1 0 1 0 1 1 1 $146 $-1 0 0 #
plane-surface $-1 -1 -1 $-1 -2.25 0 0 -1 0 0 0 0 1000 forward_v I I I I #
straight-curve $-1 -1 -1 $-1 -2.25 -1.7 8.8726426511923702 -1000 0 0 F 0.00075000000000000023 F 0.0017500000000000003 #
rgb_color-st-attrib $-1 -1 $-1 $122 $88 2 1 2 1 1 1 1 1 1 1 1 1 1 1 0 1 1 1 0.5058823823928833 0.52941179275512695 0.54901963472366333 #
rh_material-rh_entity $-1 -1 4 4 @5 plain @5 color -4 1 1 1 @5 phong @14 ambient factor -2 1 @14 diffuse factor -2 0.75 @15 specular factor -2 0.5 @8 exponent -2 10 @14 specular color -4 1 1 1 @4 none @5 plain @5 color -4 0 0 0 #
straight-curve $-1 -1 -1 $-1 -4 -1.7 8.8726426511923702 0 1000 2.1115037187176599e-15 F 0 F 0.031099999999999999 #
point $-1 -1 -1 $-1 -4 -1.7 8.8726426511923702 #
point $-1 -1 -1 $-1 -4 29.399999999999999 8.8726426511923702 #
rgb_color-st-attrib $-1 -1 $-1 $137 $114 2 1 2 1 1 1 1 1 1 1 1 1 1 1 0 1 1 1 0.5058823823928833 0.52941179275512695 0.54901963472366333 #
rh_material-rh_entity $-1 -1 4 4 @5 plain @5 color -4 1 1 1 @5 phong @14 ambient factor -2 1 @14 diffuse factor -2 0.75 @15 specular factor -2 0.5 @8 exponent -2 10 @14 specular color -4 1 1 1 @4 none @5 plain @5 color -4 0 0 0 #
End-of-ACIS-data 